0 宝剑（PDF 14 步版）
0 Name: 3-bao-jian.ldr
0 Author: Image to LDraw Skill
0 !LICENSE Redistributable under CCAL version 2.0 : see CAreadme.txt
0 BFC CERTIFY CCW
0 CustomBrick
0 FlexibleBrickControlPointUnitLength -1
0 FlexibleBrickLockedControlPoint 
0 NumOfBricks 77
1 1 -654.000000 316.000100 -2.001870 1.000000 0.000000 0.000000 0.000000 0.000000 -1.000000 0.000000 1.000000 0.000000 40666.dat
1 14 -694.000000 316.000100 21.998140 1.000000 0.000000 0.000000 0.000000 0.000000 -1.000000 0.000000 1.000000 0.000000 40666.dat
1 1 -654.000000 316.000100 45.998060 1.000000 0.000000 0.000000 0.000000 0.000000 -1.000000 0.000000 1.000000 0.000000 40666.dat
1 1 -494.000000 316.000100 -2.001870 1.000000 0.000000 0.000000 0.000000 0.000000 -1.000000 0.000000 1.000000 0.000000 40666.dat
1 14 -534.000000 316.000100 21.998140 1.000000 0.000000 0.000000 0.000000 0.000000 -1.000000 0.000000 1.000000 0.000000 40666.dat
1 1 -494.000000 316.000100 45.998060 1.000000 0.000000 0.000000 0.000000 0.000000 -1.000000 0.000000 1.000000 0.000000 40666.dat
0 STEP
1 1 -334.000000 316.000100 -2.001870 1.000000 0.000000 0.000000 0.000000 0.000000 -1.000000 0.000000 1.000000 0.000000 40666.dat
1 14 -374.000000 316.000100 21.998140 1.000000 0.000000 0.000000 0.000000 0.000000 -1.000000 0.000000 1.000000 0.000000 40666.dat
1 1 -334.000000 316.000000 46.000000 1.000000 0.000000 0.000000 0.000000 0.000000 -1.000000 0.000000 1.000000 0.000000 40666.dat
1 1 -174.000000 316.000100 -2.001870 1.000000 0.000000 0.000000 0.000000 0.000000 -1.000000 0.000000 1.000000 0.000000 40666.dat
1 14 -214.000000 316.000100 21.998140 1.000000 0.000000 0.000000 0.000000 0.000000 -1.000000 0.000000 1.000000 0.000000 40666.dat
1 1 -174.000000 316.000100 45.998060 1.000000 0.000000 0.000000 0.000000 0.000000 -1.000000 0.000000 1.000000 0.000000 40666.dat
0 STEP
1 1 -14.000000 316.000100 -2.001870 1.000000 0.000000 0.000000 0.000000 0.000000 -1.000000 0.000000 1.000000 0.000000 40666.dat
1 14 -54.000000 316.000100 21.998140 1.000000 0.000000 0.000000 0.000000 0.000000 -1.000000 0.000000 1.000000 0.000000 40666.dat
1 1 -14.000000 316.000100 45.998060 1.000000 0.000000 0.000000 0.000000 0.000000 -1.000000 0.000000 1.000000 0.000000 40666.dat
1 1 146.000000 316.000100 -2.001870 1.000000 0.000000 0.000000 0.000000 0.000000 -1.000000 0.000000 1.000000 0.000000 40666.dat
1 14 106.000000 316.000100 21.998140 1.000000 0.000000 0.000000 0.000000 0.000000 -1.000000 0.000000 1.000000 0.000000 40666.dat
1 1 146.000000 316.000100 45.998060 1.000000 0.000000 0.000000 0.000000 0.000000 -1.000000 0.000000 1.000000 0.000000 40666.dat
0 STEP
1 1 306.000000 316.000100 -2.001870 1.000000 0.000000 0.000000 0.000000 0.000000 -1.000000 0.000000 1.000000 0.000000 40666.dat
1 14 266.000000 316.000100 21.998140 1.000000 0.000000 0.000000 0.000000 0.000000 -1.000000 0.000000 1.000000 0.000000 40666.dat
1 1 306.000000 316.000100 45.998060 1.000000 0.000000 0.000000 0.000000 0.000000 -1.000000 0.000000 1.000000 0.000000 40666.dat
0 STEP
1 1 386.000000 236.000100 21.998140 0.000000 0.000000 -1.000000 -1.000000 0.000000 0.000000 0.000000 1.000000 0.000000 40666.dat
1 1 386.000000 396.000000 21.998140 0.000000 0.000000 -1.000000 -1.000000 0.000000 0.000000 0.000000 1.000000 0.000000 40666.dat
0 STEP
1 1 386.000000 196.000000 45.998060 0.000000 0.000000 -1.000000 -1.000000 0.000000 0.000000 0.000000 1.000000 0.000000 40666.dat
1 1 386.000000 436.000000 45.998060 0.000000 0.000000 -1.000000 -1.000000 0.000000 0.000000 0.000000 1.000000 0.000000 40666.dat
1 1 386.000000 196.000100 -2.001870 0.000000 0.000000 -1.000000 -1.000000 0.000000 0.000000 0.000000 1.000000 0.000000 40666.dat
1 1 386.000000 436.000000 -2.001870 0.000000 0.000000 -1.000000 -1.000000 0.000000 0.000000 0.000000 1.000000 0.000000 40666.dat
0 STEP
1 1 466.000000 316.000100 -2.001870 1.000000 0.000000 0.000000 0.000000 0.000000 -1.000000 0.000000 1.000000 0.000000 40666.dat
1 1 466.000000 316.000100 45.998060 1.000000 0.000000 0.000000 0.000000 0.000000 -1.000000 0.000000 1.000000 0.000000 40666.dat
1 1 626.000000 316.000100 -2.001870 1.000000 0.000000 0.000000 0.000000 0.000000 -1.000000 0.000000 1.000000 0.000000 40666.dat
1 1 626.000000 316.000100 45.998060 1.000000 0.000000 0.000000 0.000000 0.000000 -1.000000 0.000000 1.000000 0.000000 40666.dat
1 1 506.000000 316.000100 21.998140 1.000000 0.000000 0.000000 0.000000 0.000000 -1.000000 0.000000 1.000000 0.000000 40666.dat
1 1 666.000000 316.000100 21.998140 1.000000 0.000000 0.000000 0.000000 0.000000 -1.000000 0.000000 1.000000 0.000000 40666.dat
0 STEP
1 14 -560.000000 640.000000 0.000000 1.000000 0.000000 0.000000 0.000000 0.000000 -1.000000 0.000000 1.000000 0.000000 3011.dat
1 4 -480.000000 640.000000 -24.000000 1.000000 0.000000 0.000000 0.000000 0.000000 -1.000000 0.000000 1.000000 0.000000 40666.dat
1 4 -480.000000 640.000000 48.000000 1.000000 0.000000 0.000000 0.000000 0.000000 -1.000000 0.000000 1.000000 0.000000 40666.dat
0 STEP
1 14 -400.000000 640.000000 0.000000 1.000000 0.000000 0.000000 0.000000 0.000000 -1.000000 0.000000 1.000000 0.000000 3011.dat
1 14 -240.000000 640.000000 0.000000 1.000000 0.000000 0.000000 0.000000 0.000000 -1.000000 0.000000 1.000000 0.000000 3011.dat
1 14 -80.000000 640.000000 0.000000 1.000000 0.000000 0.000000 0.000000 0.000000 -1.000000 0.000000 1.000000 0.000000 3011.dat
1 14 80.000000 640.000000 0.000000 1.000000 0.000000 0.000000 0.000000 0.000000 -1.000000 0.000000 1.000000 0.000000 3011.dat
1 14 240.000000 640.000000 0.000000 1.000000 0.000000 0.000000 0.000000 0.000000 -1.000000 0.000000 1.000000 0.000000 3011.dat
1 4 -320.000000 640.000000 -24.000000 1.000000 0.000000 0.000000 0.000000 0.000000 -1.000000 0.000000 1.000000 0.000000 40666.dat
1 4 -320.000000 640.000000 48.000000 1.000000 0.000000 0.000000 0.000000 0.000000 -1.000000 0.000000 1.000000 0.000000 40666.dat
1 4 -160.000000 640.000000 -24.000000 1.000000 0.000000 0.000000 0.000000 0.000000 -1.000000 0.000000 1.000000 0.000000 40666.dat
1 4 -160.000000 640.000000 48.000000 1.000000 0.000000 0.000000 0.000000 0.000000 -1.000000 0.000000 1.000000 0.000000 40666.dat
1 4 0.000000 640.000000 -24.000000 1.000000 0.000000 0.000000 0.000000 0.000000 -1.000000 0.000000 1.000000 0.000000 40666.dat
1 4 0.000000 640.000000 48.000000 1.000000 0.000000 0.000000 0.000000 0.000000 -1.000000 0.000000 1.000000 0.000000 40666.dat
1 4 160.000000 640.000000 -24.000000 1.000000 0.000000 0.000000 0.000000 0.000000 -1.000000 0.000000 1.000000 0.000000 40666.dat
1 4 160.000000 640.000000 48.000000 1.000000 0.000000 0.000000 0.000000 0.000000 -1.000000 0.000000 1.000000 0.000000 40666.dat
0 STEP
1 14 280.000000 440.000000 48.000000 0.000000 0.000000 -1.000000 -1.000000 0.000000 0.000000 0.000000 1.000000 0.000000 3011.dat
1 14 280.000000 440.000000 -48.000000 0.000000 0.000000 -1.000000 -1.000000 0.000000 0.000000 0.000000 1.000000 0.000000 3011.dat
1 14 280.000000 520.000000 0.000000 0.000000 0.000000 -1.000000 -1.000000 0.000000 0.000000 0.000000 1.000000 0.000000 3011.dat
1 14 280.000000 600.000000 48.000000 0.000000 0.000000 -1.000000 -1.000000 0.000000 0.000000 0.000000 1.000000 0.000000 3011.dat
1 14 280.000000 600.000000 -48.000000 0.000000 0.000000 -1.000000 -1.000000 0.000000 0.000000 0.000000 1.000000 0.000000 3011.dat
1 14 280.000000 400.000000 0.000000 1.000000 0.000000 0.000000 0.000000 0.000000 -1.000000 0.000000 1.000000 0.000000 3437.dat
1 14 -600.000000 440.000000 48.000000 0.000000 0.000000 -1.000000 -1.000000 0.000000 0.000000 0.000000 1.000000 0.000000 3011.dat
1 14 -600.000000 440.000000 -48.000000 0.000000 0.000000 -1.000000 -1.000000 0.000000 0.000000 0.000000 1.000000 0.000000 3011.dat
1 14 -600.000000 520.000000 0.000000 0.000000 0.000000 -1.000000 -1.000000 0.000000 0.000000 0.000000 1.000000 0.000000 3011.dat
1 14 -600.000000 600.000000 48.000000 0.000000 0.000000 -1.000000 -1.000000 0.000000 0.000000 0.000000 1.000000 0.000000 3011.dat
1 14 -600.000000 600.000000 -48.000000 0.000000 0.000000 -1.000000 -1.000000 0.000000 0.000000 0.000000 1.000000 0.000000 3011.dat
1 14 -600.000000 400.000000 0.000000 1.000000 0.000000 0.000000 0.000000 0.000000 -1.000000 0.000000 1.000000 0.000000 3437.dat
0 STEP
1 4 -480.000000 640.000000 72.000000 1.000000 0.000000 0.000000 0.000000 0.000000 -1.000000 0.000000 1.000000 0.000000 40666.dat
1 4 -481.000000 640.000000 -48.000000 1.000000 0.000000 0.000000 0.000000 0.000000 -1.000000 0.000000 1.000000 0.000000 40666.dat
1 4 -562.000000 640.000000 96.000000 1.000000 0.000000 0.000000 0.000000 0.000000 -1.000000 0.000000 1.000000 0.000000 3011.dat
1 4 -560.000000 640.000000 -96.000000 1.000000 0.000000 0.000000 0.000000 0.000000 -1.000000 0.000000 1.000000 0.000000 3011.dat
0 STEP
1 4 160.000000 640.000000 -48.000000 1.000000 0.000000 0.000000 0.000000 0.000000 -1.000000 0.000000 1.000000 0.000000 40666.dat
1 4 160.000000 640.000000 72.000000 1.000000 0.000000 0.000000 0.000000 0.000000 -1.000000 0.000000 1.000000 0.000000 40666.dat
1 4 240.000000 640.000000 -96.000000 1.000000 0.000000 0.000000 0.000000 0.000000 -1.000000 0.000000 1.000000 0.000000 3011.dat
1 4 239.000000 640.000000 96.000000 1.000000 0.000000 0.000000 0.000000 0.000000 -1.000000 0.000000 1.000000 0.000000 3011.dat
0 STEP
1 4 -601.000000 363.000000 96.000000 0.000000 0.000000 -1.000000 -1.000000 0.000000 0.000000 0.000000 1.000000 0.000000 40666.dat
1 4 -601.000000 523.000000 96.000000 0.000000 0.000000 -1.000000 -1.000000 0.000000 0.000000 0.000000 1.000000 0.000000 40666.dat
1 4 -600.000000 360.000000 -72.000000 0.000000 0.000000 -1.000000 -1.000000 0.000000 0.000000 0.000000 1.000000 0.000000 40666.dat
1 4 -600.000000 520.000000 -72.000000 0.000000 0.000000 -1.000000 -1.000000 0.000000 0.000000 0.000000 1.000000 0.000000 40666.dat
1 4 280.000000 360.000000 -72.000000 0.000000 0.000000 -1.000000 -1.000000 0.000000 0.000000 0.000000 1.000000 0.000000 40666.dat
1 4 280.000000 520.000000 -72.000000 0.000000 0.000000 -1.000000 -1.000000 0.000000 0.000000 0.000000 1.000000 0.000000 40666.dat
1 4 279.000000 360.000000 96.000000 0.000000 0.000000 -1.000000 -1.000000 0.000000 0.000000 0.000000 1.000000 0.000000 40666.dat
1 4 279.000000 520.000000 96.000000 0.000000 0.000000 -1.000000 -1.000000 0.000000 0.000000 0.000000 1.000000 0.000000 40666.dat
0 STEP
0 STEP
