0 LEGO Castle (STEAM 课件 · 城堡 · 19 步搭建)
0 Name: 3-cheng-bao.ldr
0 Author: STEAM Explore
0 !LICENSE Redistributable under CCAL version 2.0 : see CAreadme.txt
0 BFC CERTIFY CCW
0 // 由 scripts/ldraw-models/gen-3-cheng-bao.mjs 生成；每个 0 STEP 对应搭建说明 PDF 的一页。
0 // Step 1: 铺绿色底板，围出橙色城墙和白红栏杆
1 2 0 0 0 1 0 0 0 1 0 0 0 1 3811.dat
1 25 -240 0 260 1 0 0 0 1 0 0 0 1 3001.dat
1 25 -160 0 260 1 0 0 0 1 0 0 0 1 3001.dat
1 25 -80 0 260 1 0 0 0 1 0 0 0 1 3001.dat
1 25 80 0 260 1 0 0 0 1 0 0 0 1 3001.dat
1 25 160 0 260 1 0 0 0 1 0 0 0 1 3001.dat
1 25 240 0 260 1 0 0 0 1 0 0 0 1 3001.dat
1 25 -240 0 -260 1 0 0 0 1 0 0 0 1 3001.dat
1 25 -160 0 -260 1 0 0 0 1 0 0 0 1 3001.dat
1 25 -80 0 -260 1 0 0 0 1 0 0 0 1 3001.dat
1 25 0 0 -260 1 0 0 0 1 0 0 0 1 3001.dat
1 25 80 0 -260 1 0 0 0 1 0 0 0 1 3001.dat
1 25 160 0 -260 1 0 0 0 1 0 0 0 1 3001.dat
1 25 240 0 -260 1 0 0 0 1 0 0 0 1 3001.dat
1 25 -300 0 -200 0 0 1 0 1 0 -1 0 0 3001.dat
1 25 300 0 -200 0 0 1 0 1 0 -1 0 0 3001.dat
1 25 -300 0 -120 0 0 1 0 1 0 -1 0 0 3001.dat
1 25 300 0 -120 0 0 1 0 1 0 -1 0 0 3001.dat
1 25 -300 0 -40 0 0 1 0 1 0 -1 0 0 3001.dat
1 25 300 0 -40 0 0 1 0 1 0 -1 0 0 3001.dat
1 25 -300 0 40 0 0 1 0 1 0 -1 0 0 3001.dat
1 25 300 0 40 0 0 1 0 1 0 -1 0 0 3001.dat
1 25 -300 0 120 0 0 1 0 1 0 -1 0 0 3001.dat
1 25 300 0 120 0 0 1 0 1 0 -1 0 0 3001.dat
1 25 -300 0 200 0 0 1 0 1 0 -1 0 0 3001.dat
1 25 300 0 200 0 0 1 0 1 0 -1 0 0 3001.dat
1 15 -220 -24 230 1 0 0 0 1 0 0 0 1 3005.dat
1 71 -220 -48 230 1 0 0 0 1 0 0 0 1 3024.dat
1 15 -120 -24 230 1 0 0 0 1 0 0 0 1 3005.dat
1 71 -120 -48 230 1 0 0 0 1 0 0 0 1 3024.dat
1 15 -170 -48 230 1 0 0 0 1 0 0 0 1 3710.dat
1 4 -190 -56 230 1 0 0 0 1 0 0 0 1 3023.dat
1 4 -150 -56 230 1 0 0 0 1 0 0 0 1 3023.dat
1 15 120 -24 230 1 0 0 0 1 0 0 0 1 3005.dat
1 71 120 -48 230 1 0 0 0 1 0 0 0 1 3024.dat
1 15 220 -24 230 1 0 0 0 1 0 0 0 1 3005.dat
1 71 220 -48 230 1 0 0 0 1 0 0 0 1 3024.dat
1 15 170 -48 230 1 0 0 0 1 0 0 0 1 3710.dat
1 4 150 -56 230 1 0 0 0 1 0 0 0 1 3023.dat
1 4 190 -56 230 1 0 0 0 1 0 0 0 1 3023.dat
1 15 -220 -24 -230 1 0 0 0 1 0 0 0 1 3005.dat
1 71 -220 -48 -230 1 0 0 0 1 0 0 0 1 3024.dat
1 15 -120 -24 -230 1 0 0 0 1 0 0 0 1 3005.dat
1 71 -120 -48 -230 1 0 0 0 1 0 0 0 1 3024.dat
1 15 -170 -48 -230 1 0 0 0 1 0 0 0 1 3710.dat
1 4 -190 -56 -230 1 0 0 0 1 0 0 0 1 3023.dat
1 4 -150 -56 -230 1 0 0 0 1 0 0 0 1 3023.dat
1 15 -50 -24 -230 1 0 0 0 1 0 0 0 1 3005.dat
1 71 -50 -48 -230 1 0 0 0 1 0 0 0 1 3024.dat
1 15 50 -24 -230 1 0 0 0 1 0 0 0 1 3005.dat
1 71 50 -48 -230 1 0 0 0 1 0 0 0 1 3024.dat
1 15 0 -48 -230 1 0 0 0 1 0 0 0 1 3710.dat
1 4 -20 -56 -230 1 0 0 0 1 0 0 0 1 3023.dat
1 4 20 -56 -230 1 0 0 0 1 0 0 0 1 3023.dat
1 15 120 -24 -230 1 0 0 0 1 0 0 0 1 3005.dat
1 71 120 -48 -230 1 0 0 0 1 0 0 0 1 3024.dat
1 15 220 -24 -230 1 0 0 0 1 0 0 0 1 3005.dat
1 71 220 -48 -230 1 0 0 0 1 0 0 0 1 3024.dat
1 15 170 -48 -230 1 0 0 0 1 0 0 0 1 3710.dat
1 4 150 -56 -230 1 0 0 0 1 0 0 0 1 3023.dat
1 4 190 -56 -230 1 0 0 0 1 0 0 0 1 3023.dat
1 15 -270 -24 -170 1 0 0 0 1 0 0 0 1 3005.dat
1 71 -270 -48 -170 1 0 0 0 1 0 0 0 1 3024.dat
1 15 -270 -24 -70 1 0 0 0 1 0 0 0 1 3005.dat
1 71 -270 -48 -70 1 0 0 0 1 0 0 0 1 3024.dat
1 15 -270 -48 -120 0 0 1 0 1 0 -1 0 0 3710.dat
1 4 -270 -56 -140 0 0 1 0 1 0 -1 0 0 3023.dat
1 4 -270 -56 -100 0 0 1 0 1 0 -1 0 0 3023.dat
1 15 -270 -24 30 1 0 0 0 1 0 0 0 1 3005.dat
1 71 -270 -48 30 1 0 0 0 1 0 0 0 1 3024.dat
1 15 -270 -24 130 1 0 0 0 1 0 0 0 1 3005.dat
1 71 -270 -48 130 1 0 0 0 1 0 0 0 1 3024.dat
1 15 -270 -48 80 0 0 1 0 1 0 -1 0 0 3710.dat
1 4 -270 -56 60 0 0 1 0 1 0 -1 0 0 3023.dat
1 4 -270 -56 100 0 0 1 0 1 0 -1 0 0 3023.dat
1 15 270 -24 -170 1 0 0 0 1 0 0 0 1 3005.dat
1 71 270 -48 -170 1 0 0 0 1 0 0 0 1 3024.dat
1 15 270 -24 -70 1 0 0 0 1 0 0 0 1 3005.dat
1 71 270 -48 -70 1 0 0 0 1 0 0 0 1 3024.dat
1 15 270 -48 -120 0 0 1 0 1 0 -1 0 0 3710.dat
1 4 270 -56 -140 0 0 1 0 1 0 -1 0 0 3023.dat
1 4 270 -56 -100 0 0 1 0 1 0 -1 0 0 3023.dat
1 15 270 -24 30 1 0 0 0 1 0 0 0 1 3005.dat
1 71 270 -48 30 1 0 0 0 1 0 0 0 1 3024.dat
1 15 270 -24 130 1 0 0 0 1 0 0 0 1 3005.dat
1 71 270 -48 130 1 0 0 0 1 0 0 0 1 3024.dat
1 15 270 -48 80 0 0 1 0 1 0 -1 0 0 3710.dat
1 4 270 -56 60 0 0 1 0 1 0 -1 0 0 3023.dat
1 4 270 -56 100 0 0 1 0 1 0 -1 0 0 3023.dat
0 STEP
0 // Step 2: 主塔一层，正面留出门洞和窗格
1 4 -40 0 0 1 0 0 0 1 0 0 0 1 3003.dat
1 15 -40 0 40 1 0 0 0 1 0 0 0 1 3003.dat
1 4 0 0 0 1 0 0 0 1 0 0 0 1 3003.dat
1 15 0 0 40 1 0 0 0 1 0 0 0 1 3003.dat
1 4 40 0 0 1 0 0 0 1 0 0 0 1 3003.dat
1 4 40 0 40 1 0 0 0 1 0 0 0 1 3003.dat
1 14 -40 -24 0 1 0 0 0 1 0 0 0 1 3003.dat
1 47 -40 -24 40 1 0 0 0 1 0 0 0 1 3003.dat
1 14 0 -24 0 1 0 0 0 1 0 0 0 1 3003.dat
1 47 0 -24 40 1 0 0 0 1 0 0 0 1 3003.dat
1 14 40 -24 0 1 0 0 0 1 0 0 0 1 3003.dat
1 14 40 -24 40 1 0 0 0 1 0 0 0 1 3003.dat
0 STEP
0 // Step 3: 主塔继续向上叠红黄相间的墙身
1 4 -40 -48 0 1 0 0 0 1 0 0 0 1 3003.dat
1 4 -40 -48 40 1 0 0 0 1 0 0 0 1 3003.dat
1 4 0 -48 0 1 0 0 0 1 0 0 0 1 3003.dat
1 4 0 -48 40 1 0 0 0 1 0 0 0 1 3003.dat
1 4 40 -48 0 1 0 0 0 1 0 0 0 1 3003.dat
1 4 40 -48 40 1 0 0 0 1 0 0 0 1 3003.dat
1 14 -40 -72 0 1 0 0 0 1 0 0 0 1 3003.dat
1 14 -40 -72 40 1 0 0 0 1 0 0 0 1 3003.dat
1 14 0 -72 0 1 0 0 0 1 0 0 0 1 3003.dat
1 14 0 -72 40 1 0 0 0 1 0 0 0 1 3003.dat
1 14 40 -72 0 1 0 0 0 1 0 0 0 1 3003.dat
1 14 40 -72 40 1 0 0 0 1 0 0 0 1 3003.dat
0 STEP
0 // Step 4: 主塔加高，形成城堡最高的主体
1 4 -40 -96 0 1 0 0 0 1 0 0 0 1 3003.dat
1 4 -40 -96 40 1 0 0 0 1 0 0 0 1 3003.dat
1 4 0 -96 0 1 0 0 0 1 0 0 0 1 3003.dat
1 15 0 -96 40 1 0 0 0 1 0 0 0 1 3003.dat
1 4 40 -96 0 1 0 0 0 1 0 0 0 1 3003.dat
1 4 40 -96 40 1 0 0 0 1 0 0 0 1 3003.dat
1 14 -40 -120 0 1 0 0 0 1 0 0 0 1 3003.dat
1 14 -40 -120 40 1 0 0 0 1 0 0 0 1 3003.dat
1 14 0 -120 0 1 0 0 0 1 0 0 0 1 3003.dat
1 14 0 -120 40 1 0 0 0 1 0 0 0 1 3003.dat
1 14 40 -120 0 1 0 0 0 1 0 0 0 1 3003.dat
1 14 40 -120 40 1 0 0 0 1 0 0 0 1 3003.dat
0 STEP
0 // Step 5: 主塔上部加窗格和红色墙带
1 4 -40 -144 0 1 0 0 0 1 0 0 0 1 3003.dat
1 4 -40 -144 40 1 0 0 0 1 0 0 0 1 3003.dat
1 4 0 -144 0 1 0 0 0 1 0 0 0 1 3003.dat
1 4 0 -144 40 1 0 0 0 1 0 0 0 1 3003.dat
1 4 40 -144 0 1 0 0 0 1 0 0 0 1 3003.dat
1 4 40 -144 40 1 0 0 0 1 0 0 0 1 3003.dat
1 14 -40 -168 0 1 0 0 0 1 0 0 0 1 3003.dat
1 14 -40 -168 40 1 0 0 0 1 0 0 0 1 3003.dat
1 14 0 -168 0 1 0 0 0 1 0 0 0 1 3003.dat
1 15 0 -168 40 1 0 0 0 1 0 0 0 1 3003.dat
1 14 40 -168 0 1 0 0 0 1 0 0 0 1 3003.dat
1 14 40 -168 40 1 0 0 0 1 0 0 0 1 3003.dat
0 STEP
0 // Step 6: 主塔顶部盖黄色平台
1 14 -40 -192 -20 1 0 0 0 1 0 0 0 1 3020.dat
1 14 -40 -192 20 1 0 0 0 1 0 0 0 1 3020.dat
1 14 -40 -192 60 1 0 0 0 1 0 0 0 1 3020.dat
1 14 40 -192 -20 1 0 0 0 1 0 0 0 1 3020.dat
1 14 40 -192 20 1 0 0 0 1 0 0 0 1 3020.dat
1 14 40 -192 60 1 0 0 0 1 0 0 0 1 3020.dat
0 STEP
0 // Step 7: 平台上搭小塔座
1 4 -20 -200 20 1 0 0 0 1 0 0 0 1 3003.dat
1 4 20 -200 20 1 0 0 0 1 0 0 0 1 3003.dat
1 14 -20 -224 20 1 0 0 0 1 0 0 0 1 3003.dat
1 14 20 -224 20 1 0 0 0 1 0 0 0 1 3003.dat
0 STEP
0 // Step 8: 小塔座加白色窗格
1 15 -20 -248 20 1 0 0 0 1 0 0 0 1 3003.dat
1 15 20 -248 20 1 0 0 0 1 0 0 0 1 3003.dat
0 STEP
0 // Step 9: 主塔加城垛
1 14 -40 -272 0 1 0 0 0 1 0 0 0 1 3020.dat
1 14 -40 -272 40 1 0 0 0 1 0 0 0 1 3020.dat
1 14 40 -272 0 1 0 0 0 1 0 0 0 1 3020.dat
1 14 40 -272 40 1 0 0 0 1 0 0 0 1 3020.dat
1 4 -20 -280 10 1 0 0 0 1 0 0 0 1 3004.dat
1 4 -20 -280 30 1 0 0 0 1 0 0 0 1 3004.dat
1 4 0 -280 10 1 0 0 0 1 0 0 0 1 3004.dat
1 4 0 -280 30 1 0 0 0 1 0 0 0 1 3004.dat
1 4 20 -280 10 1 0 0 0 1 0 0 0 1 3004.dat
1 4 20 -280 30 1 0 0 0 1 0 0 0 1 3004.dat
1 4 -30 -280 20 0 0 1 0 1 0 -1 0 0 3004.dat
1 4 30 -280 20 0 0 1 0 1 0 -1 0 0 3004.dat
1 4 -30 -280 20 0 0 1 0 1 0 -1 0 0 3004.dat
1 4 30 -280 20 0 0 1 0 1 0 -1 0 0 3004.dat
0 STEP
0 // Step 10: 主塔插上旗杆和红旗
1 0 0 -304 20 1 0 0 0 1 0 0 0 1 3005.dat
1 0 0 -328 20 1 0 0 0 1 0 0 0 1 3005.dat
1 0 0 -352 20 1 0 0 0 1 0 0 0 1 3005.dat
1 4 24 -376 20 1 0 0 0 1 0 0 0 1 3023.dat
1 4 44 -376 20 1 0 0 0 1 0 0 0 1 3023.dat
0 STEP
0 // Step 11: 右侧塔一层，连接到城墙边
1 4 170 0 60 1 0 0 0 1 0 0 0 1 3003.dat
1 15 170 0 100 1 0 0 0 1 0 0 0 1 3003.dat
1 4 210 0 60 1 0 0 0 1 0 0 0 1 3003.dat
1 15 210 0 100 1 0 0 0 1 0 0 0 1 3003.dat
1 14 170 -24 60 1 0 0 0 1 0 0 0 1 3003.dat
1 15 170 -24 100 1 0 0 0 1 0 0 0 1 3003.dat
1 14 210 -24 60 1 0 0 0 1 0 0 0 1 3003.dat
1 15 210 -24 100 1 0 0 0 1 0 0 0 1 3003.dat
0 STEP
0 // Step 12: 右侧塔叠红黄墙身
1 4 170 -48 60 1 0 0 0 1 0 0 0 1 3003.dat
1 4 170 -48 100 1 0 0 0 1 0 0 0 1 3003.dat
1 4 210 -48 60 1 0 0 0 1 0 0 0 1 3003.dat
1 4 210 -48 100 1 0 0 0 1 0 0 0 1 3003.dat
1 14 170 -72 60 1 0 0 0 1 0 0 0 1 3003.dat
1 14 170 -72 100 1 0 0 0 1 0 0 0 1 3003.dat
1 14 210 -72 60 1 0 0 0 1 0 0 0 1 3003.dat
1 14 210 -72 100 1 0 0 0 1 0 0 0 1 3003.dat
0 STEP
0 // Step 13: 右侧塔加入上层窗格
1 4 170 -96 60 1 0 0 0 1 0 0 0 1 3003.dat
1 15 170 -96 100 1 0 0 0 1 0 0 0 1 3003.dat
1 4 210 -96 60 1 0 0 0 1 0 0 0 1 3003.dat
1 15 210 -96 100 1 0 0 0 1 0 0 0 1 3003.dat
0 STEP
0 // Step 14: 右侧塔盖平台和城垛
1 14 150 -120 40 1 0 0 0 1 0 0 0 1 3020.dat
1 14 150 -120 80 1 0 0 0 1 0 0 0 1 3020.dat
1 14 150 -120 120 1 0 0 0 1 0 0 0 1 3020.dat
1 14 230 -120 40 1 0 0 0 1 0 0 0 1 3020.dat
1 14 230 -120 80 1 0 0 0 1 0 0 0 1 3020.dat
1 14 230 -120 120 1 0 0 0 1 0 0 0 1 3020.dat
1 4 170 -128 50 1 0 0 0 1 0 0 0 1 3004.dat
1 4 170 -128 110 1 0 0 0 1 0 0 0 1 3004.dat
1 4 190 -128 50 1 0 0 0 1 0 0 0 1 3004.dat
1 4 190 -128 110 1 0 0 0 1 0 0 0 1 3004.dat
1 4 210 -128 50 1 0 0 0 1 0 0 0 1 3004.dat
1 4 210 -128 110 1 0 0 0 1 0 0 0 1 3004.dat
1 4 160 -128 60 0 0 1 0 1 0 -1 0 0 3004.dat
1 4 220 -128 60 0 0 1 0 1 0 -1 0 0 3004.dat
1 4 160 -128 100 0 0 1 0 1 0 -1 0 0 3004.dat
1 4 220 -128 100 0 0 1 0 1 0 -1 0 0 3004.dat
0 STEP
0 // Step 15: 左侧塔一层，和右侧塔保持对称
1 4 -210 0 60 1 0 0 0 1 0 0 0 1 3003.dat
1 15 -210 0 100 1 0 0 0 1 0 0 0 1 3003.dat
1 4 -170 0 60 1 0 0 0 1 0 0 0 1 3003.dat
1 15 -170 0 100 1 0 0 0 1 0 0 0 1 3003.dat
1 14 -210 -24 60 1 0 0 0 1 0 0 0 1 3003.dat
1 15 -210 -24 100 1 0 0 0 1 0 0 0 1 3003.dat
1 14 -170 -24 60 1 0 0 0 1 0 0 0 1 3003.dat
1 15 -170 -24 100 1 0 0 0 1 0 0 0 1 3003.dat
0 STEP
0 // Step 16: 左侧塔叠红黄墙身
1 4 -210 -48 60 1 0 0 0 1 0 0 0 1 3003.dat
1 4 -210 -48 100 1 0 0 0 1 0 0 0 1 3003.dat
1 4 -170 -48 60 1 0 0 0 1 0 0 0 1 3003.dat
1 4 -170 -48 100 1 0 0 0 1 0 0 0 1 3003.dat
1 14 -210 -72 60 1 0 0 0 1 0 0 0 1 3003.dat
1 14 -210 -72 100 1 0 0 0 1 0 0 0 1 3003.dat
1 14 -170 -72 60 1 0 0 0 1 0 0 0 1 3003.dat
1 14 -170 -72 100 1 0 0 0 1 0 0 0 1 3003.dat
0 STEP
0 // Step 17: 左侧塔加入上层窗格
1 4 -210 -96 60 1 0 0 0 1 0 0 0 1 3003.dat
1 15 -210 -96 100 1 0 0 0 1 0 0 0 1 3003.dat
1 4 -170 -96 60 1 0 0 0 1 0 0 0 1 3003.dat
1 15 -170 -96 100 1 0 0 0 1 0 0 0 1 3003.dat
0 STEP
0 // Step 18: 左侧塔盖平台和城垛
1 14 -230 -120 40 1 0 0 0 1 0 0 0 1 3020.dat
1 14 -230 -120 80 1 0 0 0 1 0 0 0 1 3020.dat
1 14 -230 -120 120 1 0 0 0 1 0 0 0 1 3020.dat
1 14 -150 -120 40 1 0 0 0 1 0 0 0 1 3020.dat
1 14 -150 -120 80 1 0 0 0 1 0 0 0 1 3020.dat
1 14 -150 -120 120 1 0 0 0 1 0 0 0 1 3020.dat
1 4 -210 -128 50 1 0 0 0 1 0 0 0 1 3004.dat
1 4 -210 -128 110 1 0 0 0 1 0 0 0 1 3004.dat
1 4 -190 -128 50 1 0 0 0 1 0 0 0 1 3004.dat
1 4 -190 -128 110 1 0 0 0 1 0 0 0 1 3004.dat
1 4 -170 -128 50 1 0 0 0 1 0 0 0 1 3004.dat
1 4 -170 -128 110 1 0 0 0 1 0 0 0 1 3004.dat
1 4 -220 -128 60 0 0 1 0 1 0 -1 0 0 3004.dat
1 4 -160 -128 60 0 0 1 0 1 0 -1 0 0 3004.dat
1 4 -220 -128 100 0 0 1 0 1 0 -1 0 0 3004.dat
1 4 -160 -128 100 0 0 1 0 1 0 -1 0 0 3004.dat
0 STEP
0 // Step 19: 两侧塔插上小红旗，城堡完成
1 0 190 -152 80 1 0 0 0 1 0 0 0 1 3005.dat
1 0 190 -176 80 1 0 0 0 1 0 0 0 1 3005.dat
1 0 190 -200 80 1 0 0 0 1 0 0 0 1 3005.dat
1 4 214 -224 80 1 0 0 0 1 0 0 0 1 3023.dat
1 4 234 -224 80 1 0 0 0 1 0 0 0 1 3023.dat
1 0 -190 -152 80 1 0 0 0 1 0 0 0 1 3005.dat
1 0 -190 -176 80 1 0 0 0 1 0 0 0 1 3005.dat
1 0 -190 -200 80 1 0 0 0 1 0 0 0 1 3005.dat
1 4 -214 -224 80 1 0 0 0 1 0 0 0 1 3023.dat
1 4 -234 -224 80 1 0 0 0 1 0 0 0 1 3023.dat
0 STEP
