0 FILE 3-chang-jing-long_Copy.io
0 Duplo Dinosaur Slide Playland (STEAM 课件 · 长颈龙 · 12 步搭建)
0 Name: 3-chang-jing-long_Copy
0 Author: STEAM Explore
0 CustomBrick
0 FlexibleBrickControlPointUnitLength -1
0 FlexibleBrickLockedControlPoint 
0 NumOfBricks 74
1 2 -80.000000 0.000000 -200.000000 0.000000 0.000000 -1.000000 0.000000 1.000000 0.000000 1.000000 0.000000 0.000000 2302.dat
1 14 -80.000000 -48.000000 -200.000000 1.000000 0.000000 0.000000 0.000000 1.000000 0.000000 0.000000 0.000000 1.000000 3437.dat
1 2 -80.000000 -96.000000 -200.000000 1.000000 0.000000 0.000000 0.000000 1.000000 0.000000 0.000000 0.000000 1.000000 3437.dat
1 14 -80.000000 -144.000000 -200.000000 1.000000 0.000000 0.000000 0.000000 1.000000 0.000000 0.000000 0.000000 1.000000 3437.dat
1 2 -80.000000 -192.000000 -200.000000 1.000000 0.000000 0.000000 0.000000 1.000000 0.000000 0.000000 0.000000 1.000000 3437.dat
1 2 80.000000 0.000000 -200.000000 0.000000 0.000000 -1.000000 0.000000 1.000000 0.000000 1.000000 0.000000 0.000000 2302.dat
1 14 80.000000 -48.000000 -200.000000 1.000000 0.000000 0.000000 0.000000 1.000000 0.000000 0.000000 0.000000 1.000000 3437.dat
1 2 80.000000 -96.000000 -200.000000 1.000000 0.000000 0.000000 0.000000 1.000000 0.000000 0.000000 0.000000 1.000000 3437.dat
1 14 80.000000 -144.000000 -200.000000 1.000000 0.000000 0.000000 0.000000 1.000000 0.000000 0.000000 0.000000 1.000000 3437.dat
1 2 80.000000 -192.000000 -200.000000 1.000000 0.000000 0.000000 0.000000 1.000000 0.000000 0.000000 0.000000 1.000000 3437.dat
1 2 -80.000000 0.000000 200.000000 0.000000 0.000000 -1.000000 0.000000 1.000000 0.000000 1.000000 0.000000 0.000000 2302.dat
1 14 -80.000000 -48.000000 200.000000 1.000000 0.000000 0.000000 0.000000 1.000000 0.000000 0.000000 0.000000 1.000000 3437.dat
1 2 -80.000000 -96.000000 200.000000 1.000000 0.000000 0.000000 0.000000 1.000000 0.000000 0.000000 0.000000 1.000000 3437.dat
1 14 -80.000000 -144.000000 200.000000 1.000000 0.000000 0.000000 0.000000 1.000000 0.000000 0.000000 0.000000 1.000000 3437.dat
1 2 -80.000000 -192.000000 200.000000 1.000000 0.000000 0.000000 0.000000 1.000000 0.000000 0.000000 0.000000 1.000000 3437.dat
1 2 80.000000 0.000000 200.000000 0.000000 0.000000 -1.000000 0.000000 1.000000 0.000000 1.000000 0.000000 0.000000 2302.dat
1 14 80.000000 -48.000000 200.000000 1.000000 0.000000 0.000000 0.000000 1.000000 0.000000 0.000000 0.000000 1.000000 3437.dat
1 2 80.000000 -96.000000 200.000000 1.000000 0.000000 0.000000 0.000000 1.000000 0.000000 0.000000 0.000000 1.000000 3437.dat
1 14 80.000000 -144.000000 200.000000 1.000000 0.000000 0.000000 0.000000 1.000000 0.000000 0.000000 0.000000 1.000000 3437.dat
1 2 80.000000 -192.000000 200.000000 1.000000 0.000000 0.000000 0.000000 1.000000 0.000000 0.000000 0.000000 1.000000 3437.dat
0 STEP
1 2 0.000000 -216.000000 0.000000 0.000000 0.000000 1.000000 0.000000 1.000000 0.000000 -1.000000 0.000000 0.000000 4196.dat
0 STEP
1 14 0.000000 -456.000000 -200.000000 1.000000 0.000000 0.000000 0.000000 1.000000 0.000000 0.000000 0.000000 1.000000 31191.dat
1 14 0.000000 -456.000000 200.000000 1.000000 0.000000 0.000000 0.000000 1.000000 0.000000 0.000000 0.000000 1.000000 31191.dat
0 STEP
1 1 0.000000 -346.000000 -280.000000 1.000000 0.000000 0.000000 0.000000 1.000000 0.000000 0.000000 0.000000 1.000000 31452.dat
1 14 0.000000 -346.000000 -160.000000 1.000000 0.000000 0.000000 0.000000 1.000000 0.000000 0.000000 0.000000 1.000000 31452.dat
1 1 0.000000 -346.000000 -40.000000 1.000000 0.000000 0.000000 0.000000 1.000000 0.000000 0.000000 0.000000 1.000000 31452.dat
1 14 0.000000 -346.000000 80.000000 1.000000 0.000000 0.000000 0.000000 1.000000 0.000000 0.000000 0.000000 1.000000 31452.dat
0 STEP
1 14 0.000000 -346.000000 -280.000000 0.000000 -1.000000 0.000000 -1.000000 0.000000 0.000000 0.000000 0.000000 -1.000000 31195.dat
1 1 0.000000 -310.853000 -364.853000 0.000000 -1.000000 0.000000 -0.707107 0.000000 0.707107 -0.707107 0.000000 -0.707107 31195.dat
1 14 0.000000 -226.000200 -400.000400 0.000000 1.000000 0.000000 0.000000 0.000000 1.000000 1.000000 0.000000 0.000000 31195.dat
1 1 0.000000 -141.147200 -435.147400 0.000000 1.000000 0.000000 0.707107 0.000000 0.707107 0.707107 0.000000 -0.707107 31195.dat
0 STEP
1 1 0.000000 -346.000000 200.000000 0.000000 -1.000000 0.000000 1.000000 0.000000 0.000000 0.000000 0.000000 1.000000 31195.dat
1 14 0.000000 -381.147000 284.853000 0.000000 -1.000000 0.000000 0.707107 0.000000 -0.707107 0.707107 0.000000 0.707107 31195.dat
1 4 0.000000 -456.000000 288.000400 -1.000000 0.000000 0.000000 0.000000 1.000000 0.000000 0.000000 0.000000 -1.000000 42029.dat
0 STEP
1 1 0.000000 -465.999800 320.000400 0.000000 -1.000000 0.000000 0.000000 0.000000 -1.000000 1.000000 0.000000 0.000000 31452.dat
1 14 0.000000 -585.999800 320.000400 0.000000 -1.000000 0.000000 0.000000 0.000000 -1.000000 1.000000 0.000000 0.000000 31452.dat
1 1 0.000000 -705.999800 320.000400 0.000000 -1.000000 0.000000 0.000000 0.000000 -1.000000 1.000000 0.000000 0.000000 31452.dat
1 14 0.000000 -825.999800 320.000400 0.000000 1.000000 0.000000 0.000000 0.000000 -1.000000 -1.000000 0.000000 0.000000 31195.dat
1 1 0.000000 -910.852800 355.147400 0.000000 1.000000 0.000000 -0.707107 0.000000 -0.707107 -0.707107 0.000000 0.707107 31195.dat
0 STEP
1 14 0.000000 -946.000300 440.000300 0.000000 1.000000 0.000000 -1.000000 0.000000 0.000000 0.000000 0.000000 1.000000 31195.dat
1 4 0.000000 -994.000300 440.000300 -1.000000 0.000000 0.000000 0.000000 0.000000 -1.000000 0.000000 -1.000000 0.000000 42029.dat
1 14 -44.000000 -1082.000000 441.000000 0.000000 0.000000 -1.000000 1.000000 0.000000 0.000000 0.000000 -1.000000 0.000000 3437pe1.dat
1 14 36.000000 -1082.000000 441.000000 0.000000 0.000000 -1.000000 1.000000 0.000000 0.000000 0.000000 -1.000000 0.000000 3437pe1.dat
0 STEP
1 14 -120.000000 -264.000000 -80.000000 0.000000 0.000000 1.000000 0.000000 1.000000 0.000000 -1.000000 0.000000 0.000000 3011.dat
1 14 -120.000000 -264.000000 80.000000 0.000000 0.000000 1.000000 0.000000 1.000000 0.000000 -1.000000 0.000000 0.000000 3011.dat
1 14 120.000000 -264.000000 -80.000000 0.000000 0.000000 1.000000 0.000000 1.000000 0.000000 -1.000000 0.000000 0.000000 3011.dat
1 14 120.000000 -264.000000 80.000000 0.000000 0.000000 1.000000 0.000000 1.000000 0.000000 -1.000000 0.000000 0.000000 3011.dat
1 2 -120.000000 -312.000000 -80.000000 0.000000 0.000000 1.000000 0.000000 1.000000 0.000000 -1.000000 0.000000 0.000000 3011.dat
1 2 -120.000000 -312.000000 80.000000 0.000000 0.000000 1.000000 0.000000 1.000000 0.000000 -1.000000 0.000000 0.000000 3011.dat
1 2 120.000000 -312.000000 -80.000000 0.000000 0.000000 1.000000 0.000000 1.000000 0.000000 -1.000000 0.000000 0.000000 3011.dat
1 2 120.000000 -312.000000 80.000000 0.000000 0.000000 1.000000 0.000000 1.000000 0.000000 -1.000000 0.000000 0.000000 3011.dat
1 14 -120.000000 -360.000000 -80.000000 0.000000 0.000000 1.000000 0.000000 1.000000 0.000000 -1.000000 0.000000 0.000000 3011.dat
1 14 -120.000000 -360.000000 80.000000 0.000000 0.000000 1.000000 0.000000 1.000000 0.000000 -1.000000 0.000000 0.000000 3011.dat
1 14 120.000000 -360.000000 -80.000000 0.000000 0.000000 1.000000 0.000000 1.000000 0.000000 -1.000000 0.000000 0.000000 3011.dat
1 14 120.000000 -360.000000 80.000000 0.000000 0.000000 1.000000 0.000000 1.000000 0.000000 -1.000000 0.000000 0.000000 3011.dat
1 2 -120.000000 -408.000000 -80.000000 0.000000 0.000000 1.000000 0.000000 1.000000 0.000000 -1.000000 0.000000 0.000000 3011.dat
1 2 -120.000000 -408.000000 80.000000 0.000000 0.000000 1.000000 0.000000 1.000000 0.000000 -1.000000 0.000000 0.000000 3011.dat
1 2 120.000000 -408.000000 -80.000000 0.000000 0.000000 1.000000 0.000000 1.000000 0.000000 -1.000000 0.000000 0.000000 3011.dat
1 2 120.000000 -408.000000 80.000000 0.000000 0.000000 1.000000 0.000000 1.000000 0.000000 -1.000000 0.000000 0.000000 3011.dat
1 14 -120.000000 -456.000000 -80.000000 0.000000 0.000000 1.000000 0.000000 1.000000 0.000000 -1.000000 0.000000 0.000000 3011.dat
1 14 -120.000000 -456.000000 80.000000 0.000000 0.000000 1.000000 0.000000 1.000000 0.000000 -1.000000 0.000000 0.000000 3011.dat
1 14 120.000000 -456.000000 -80.000000 0.000000 0.000000 1.000000 0.000000 1.000000 0.000000 -1.000000 0.000000 0.000000 3011.dat
1 14 120.000000 -456.000000 80.000000 0.000000 0.000000 1.000000 0.000000 1.000000 0.000000 -1.000000 0.000000 0.000000 3011.dat
0 STEP
1 2 -40.000000 -504.000000 -200.000000 1.000000 0.000000 0.000000 0.000000 1.000000 0.000000 0.000000 0.000000 1.000000 3011.dat
1 2 40.000000 -504.000000 120.000000 1.000000 0.000000 0.000000 0.000000 1.000000 0.000000 0.000000 0.000000 1.000000 3011.dat
1 2 -80.000000 -504.000000 -80.000000 0.000000 0.000000 1.000000 0.000000 1.000000 0.000000 -1.000000 0.000000 0.000000 3011.dat
1 2 -80.000000 -504.000000 80.000000 0.000000 0.000000 1.000000 0.000000 1.000000 0.000000 -1.000000 0.000000 0.000000 3011.dat
1 2 80.000000 -504.000000 -160.000000 0.000000 0.000000 1.000000 0.000000 1.000000 0.000000 -1.000000 0.000000 0.000000 3011.dat
1 2 80.000000 -504.000000 0.000000 0.000000 0.000000 1.000000 0.000000 1.000000 0.000000 -1.000000 0.000000 0.000000 3011.dat
0 STEP
1 14 0.000000 -552.000000 -160.000000 1.000000 0.000000 0.000000 0.000000 1.000000 0.000000 0.000000 0.000000 1.000000 3011.dat
1 2 0.000000 -552.000000 -80.000000 1.000000 0.000000 0.000000 0.000000 1.000000 0.000000 0.000000 0.000000 1.000000 3011.dat
1 14 0.000000 -552.000000 0.000000 1.000000 0.000000 0.000000 0.000000 1.000000 0.000000 0.000000 0.000000 1.000000 3011.dat
1 2 0.000000 -552.000000 80.000000 1.000000 0.000000 0.000000 0.000000 1.000000 0.000000 0.000000 0.000000 1.000000 3011.dat
1 14 0.000000 -552.000000 160.000000 1.000000 0.000000 0.000000 0.000000 1.000000 0.000000 0.000000 0.000000 1.000000 3011.dat
0 STEP
0 STEP
0 NOFILE
