0 FILE chouti_Copy.io
0 Duplo Drawer Cabinet (STEAM 课件 · 抽屉 · 10 步搭建)
0 Name: chouti_Copy
0 Author: STEAM Explore
0 CustomBrick
0 FlexibleBrickControlPointUnitLength -1
0 FlexibleBrickLockedControlPoint
0 NumOfBricks 140
1 7 0.000000 0.000000 0.000000 1.000000 0.000000 0.000000 0.000000 1.000000 0.000000 0.000000 0.000000 1.000000 51262.dat
1 1 -80.000000 -48.000000 -120.000000 1.000000 0.000000 0.000000 0.000000 1.000000 0.000000 0.000000 0.000000 1.000000 3011.dat
1 1 80.000000 -48.000000 -120.000000 1.000000 0.000000 0.000000 0.000000 1.000000 0.000000 0.000000 0.000000 1.000000 3011.dat
1 1 -80.000000 -48.000000 120.000000 1.000000 0.000000 0.000000 0.000000 1.000000 0.000000 0.000000 0.000000 1.000000 3011.dat
1 1 80.000000 -48.000000 120.000000 1.000000 0.000000 0.000000 0.000000 1.000000 0.000000 0.000000 0.000000 1.000000 3011.dat
1 1 -120.000000 -48.000000 0.000000 0.000000 0.000000 1.000000 0.000000 1.000000 0.000000 -1.000000 0.000000 0.000000 3011.dat
1 1 120.000000 -48.000000 0.000000 0.000000 0.000000 1.000000 0.000000 1.000000 0.000000 -1.000000 0.000000 0.000000 3011.dat
0 STEP
1 14 -120.000000 -96.000000 -80.000000 0.000000 0.000000 1.000000 0.000000 1.000000 0.000000 -1.000000 0.000000 0.000000 3011.dat
1 14 -120.000000 -96.000000 80.000000 0.000000 0.000000 1.000000 0.000000 1.000000 0.000000 -1.000000 0.000000 0.000000 3011.dat
1 14 120.000000 -96.000000 -80.000000 0.000000 0.000000 1.000000 0.000000 1.000000 0.000000 -1.000000 0.000000 0.000000 3011.dat
1 14 120.000000 -96.000000 80.000000 0.000000 0.000000 1.000000 0.000000 1.000000 0.000000 -1.000000 0.000000 0.000000 3011.dat
1 14 0.000000 -96.000000 -120.000000 1.000000 0.000000 0.000000 0.000000 1.000000 0.000000 0.000000 0.000000 1.000000 3011.dat
1 14 0.000000 -96.000000 120.000000 1.000000 0.000000 0.000000 0.000000 1.000000 0.000000 0.000000 0.000000 1.000000 3011.dat
0 STEP
1 1 0.000000 -144.000000 -120.000000 1.000000 0.000000 0.000000 0.000000 1.000000 0.000000 0.000000 0.000000 1.000000 3011.dat
1 4 1.500020 -96.000000 209.876520 -1.000000 0.000000 0.000000 0.000000 1.000000 0.000000 0.000000 0.000000 -1.000000 42029.dat
1 1 -120.000000 -144.000000 80.000000 0.000000 0.000000 1.000000 0.000000 1.000000 0.000000 -1.000000 0.000000 0.000000 3011.dat
1 1 -120.000000 -144.000000 -80.000000 0.000000 0.000000 1.000000 0.000000 1.000000 0.000000 -1.000000 0.000000 0.000000 3011.dat
1 1 120.000000 -144.000000 -80.000000 0.000000 0.000000 1.000000 0.000000 1.000000 0.000000 -1.000000 0.000000 0.000000 3011.dat
1 1 120.000000 -144.000000 80.000000 0.000000 0.000000 1.000000 0.000000 1.000000 0.000000 -1.000000 0.000000 0.000000 3011.dat
0 STEP
1 14 -120.000000 -192.000000 -80.000000 0.000000 0.000000 1.000000 0.000000 1.000000 0.000000 -1.000000 0.000000 0.000000 3011.dat
1 14 -120.000000 -192.000000 80.000000 0.000000 0.000000 1.000000 0.000000 1.000000 0.000000 -1.000000 0.000000 0.000000 3011.dat
1 14 120.000000 -192.000000 -80.000000 0.000000 0.000000 1.000000 0.000000 1.000000 0.000000 -1.000000 0.000000 0.000000 3011.dat
1 14 120.000000 -192.000000 80.000000 0.000000 0.000000 1.000000 0.000000 1.000000 0.000000 -1.000000 0.000000 0.000000 3011.dat
1 14 0.000000 -192.000000 -120.000000 1.000000 0.000000 0.000000 0.000000 1.000000 0.000000 0.000000 0.000000 1.000000 3011.dat
1 14 0.000000 -192.000000 120.000000 1.000000 0.000000 0.000000 0.000000 1.000000 0.000000 0.000000 0.000000 1.000000 3011.dat
1 2 0.000000 24.000000 120.000000 1.000000 0.000000 0.000000 0.000000 1.000000 0.000000 0.000000 0.000000 1.000000 4196.dat
1 2 0.000000 24.000000 -120.000000 1.000000 0.000000 0.000000 0.000000 1.000000 0.000000 0.000000 0.000000 1.000000 4196.dat
1 1 200.000000 -24.000000 160.000000 0.000000 0.000000 -1.000000 0.000000 1.000000 0.000000 1.000000 0.000000 0.000000 3011.dat
1 1 200.000000 -24.000000 0.000000 0.000000 0.000000 1.000000 0.000000 1.000000 0.000000 -1.000000 0.000000 0.000000 3011.dat
1 1 200.000000 -24.000000 -160.000000 0.000000 0.000000 1.000000 0.000000 1.000000 0.000000 -1.000000 0.000000 0.000000 3011.dat
1 1 -200.000000 -24.000000 160.000000 0.000000 0.000000 -1.000000 0.000000 1.000000 0.000000 1.000000 0.000000 0.000000 3011.dat
1 1 -200.000000 -24.000000 -0.000060 0.000000 0.000000 1.000000 0.000000 1.000000 0.000000 -1.000000 0.000000 0.000000 3011.dat
1 1 -200.000000 -24.000000 -160.000200 0.000000 0.000000 1.000000 0.000000 1.000000 0.000000 -1.000000 0.000000 0.000000 3011.dat
1 1 -80.000000 -24.000000 -200.000000 1.000000 0.000000 0.000000 0.000000 1.000000 0.000000 0.000000 0.000000 1.000000 3011.dat
1 1 80.000000 -24.000000 -200.000000 1.000000 0.000000 0.000000 0.000000 1.000000 0.000000 0.000000 0.000000 1.000000 3011.dat
1 27 200.000000 -72.000000 200.000000 0.000000 0.000000 1.000000 0.000000 1.000000 0.000000 -1.000000 0.000000 0.000000 3437.dat
1 27 -200.000000 -72.000000 200.000000 0.000000 0.000000 1.000000 0.000000 1.000000 0.000000 -1.000000 0.000000 0.000000 3437.dat
1 27 200.000000 -72.000000 80.000000 0.000000 0.000000 1.000000 0.000000 1.000000 0.000000 -1.000000 0.000000 0.000000 3011.dat
1 27 200.000000 -72.000000 -80.000000 0.000000 0.000000 1.000000 0.000000 1.000000 0.000000 -1.000000 0.000000 0.000000 3011.dat
1 27 160.000000 -72.000000 -200.000000 -1.000000 0.000000 0.000000 0.000000 1.000000 0.000000 0.000000 0.000000 -1.000000 3011.dat
1 27 0.000000 -72.000000 -200.000000 -1.000000 0.000000 0.000000 0.000000 1.000000 0.000000 0.000000 0.000000 -1.000000 3011.dat
1 27 -160.000000 -72.000000 -200.000000 -1.000000 0.000000 0.000000 0.000000 1.000000 0.000000 0.000000 0.000000 -1.000000 3011.dat
1 27 -200.000000 -72.000000 -80.000000 0.000000 0.000000 1.000000 0.000000 1.000000 0.000000 -1.000000 0.000000 0.000000 3011.dat
1 27 -200.000000 -72.000000 80.000000 0.000000 0.000000 1.000000 0.000000 1.000000 0.000000 -1.000000 0.000000 0.000000 3011.dat
1 1 200.000000 -120.000000 160.000000 0.000000 0.000000 -1.000000 0.000000 1.000000 0.000000 1.000000 0.000000 0.000000 3011.dat
1 1 200.000000 -120.000000 -0.000060 0.000000 0.000000 1.000000 0.000000 1.000000 0.000000 -1.000000 0.000000 0.000000 3011.dat
1 1 200.000000 -120.000000 -160.000100 0.000000 0.000000 1.000000 0.000000 1.000000 0.000000 -1.000000 0.000000 0.000000 3011.dat
1 1 -200.000200 -120.000000 159.999900 0.000000 0.000000 -1.000000 0.000000 1.000000 0.000000 1.000000 0.000000 0.000000 3011.dat
1 1 -200.000100 -120.000000 -0.000150 0.000000 0.000000 1.000001 0.000000 1.000000 0.000000 -1.000001 0.000000 0.000000 3011.dat
1 1 -200.000100 -120.000000 -160.000400 0.000000 0.000000 1.000001 0.000000 1.000000 0.000000 -1.000001 0.000000 0.000000 3011.dat
1 1 -80.000060 -120.000000 -200.000200 1.000000 0.000000 0.000000 0.000000 1.000000 0.000000 0.000000 0.000000 1.000000 3011.dat
1 1 79.999970 -120.000000 -200.000200 1.000000 0.000000 0.000000 0.000000 1.000000 0.000000 0.000000 0.000000 1.000000 3011.dat
1 27 200.000000 -168.000000 200.000000 0.000000 0.000000 1.000000 0.000000 1.000000 0.000000 -1.000000 0.000000 0.000000 3437.dat
1 27 -200.000200 -168.000000 200.000000 0.000000 0.000000 1.000000 0.000000 1.000000 0.000000 -1.000000 0.000000 0.000000 3437.dat
1 27 200.000000 -168.000000 79.999920 0.000000 0.000000 1.000000 0.000000 1.000000 0.000000 -1.000000 0.000000 0.000000 3011.dat
1 27 200.000000 -168.000000 -80.000100 0.000000 0.000000 1.000000 0.000000 1.000000 0.000000 -1.000000 0.000000 0.000000 3011.dat
1 27 160.000000 -168.000000 -200.000200 -1.000000 0.000000 0.000000 0.000000 1.000000 0.000000 0.000000 0.000000 -1.000000 3011.dat
1 27 -0.000030 -168.000000 -200.000200 -1.000000 0.000000 0.000000 0.000000 1.000000 0.000000 0.000000 0.000000 -1.000000 3011.dat
1 27 -160.000100 -168.000000 -200.000200 -1.000000 0.000000 0.000000 0.000000 1.000000 0.000000 0.000000 0.000000 -1.000000 3011.dat
1 27 -200.000100 -168.000000 -80.000110 0.000000 0.000000 1.000000 0.000000 1.000000 0.000000 -1.000000 0.000000 0.000000 3011.dat
1 27 -200.000200 -168.000000 79.999880 0.000000 0.000000 1.000000 0.000000 1.000000 0.000000 -1.000000 0.000000 0.000000 3011.dat
1 1 200.000000 -216.000000 160.000000 0.000000 0.000000 -1.000000 0.000000 1.000000 0.000000 1.000000 0.000000 0.000000 3011.dat
1 1 200.000000 -216.000000 0.000180 0.000000 0.000000 1.000000 0.000000 1.000000 0.000000 -1.000000 0.000000 0.000000 3011.dat
1 1 200.000100 -216.000000 -159.999900 0.000000 0.000000 1.000000 0.000000 1.000000 0.000000 -1.000000 0.000000 0.000000 3011.dat
1 1 -200.000100 -216.000000 160.000200 0.000000 0.000000 -1.000000 0.000000 1.000000 0.000000 1.000000 0.000000 0.000000 3011.dat
1 1 -200.000100 -216.000000 0.000060 0.000000 0.000000 1.000001 0.000000 1.000000 0.000000 -1.000001 0.000000 0.000000 3011.dat
1 1 -200.000100 -216.000000 -160.000200 0.000000 0.000000 1.000001 0.000000 1.000000 0.000000 -1.000001 0.000000 0.000000 3011.dat
1 1 -79.999880 -216.000000 -199.999900 1.000000 0.000000 0.000000 0.000000 1.000000 0.000000 0.000000 0.000000 1.000000 3011.dat
1 1 80.000040 -216.000000 -199.999900 1.000000 0.000000 0.000000 0.000000 1.000000 0.000000 0.000000 0.000000 1.000000 3011.dat
0 STEP
1 2 0.000000 -240.000000 120.000000 1.000000 0.000000 0.000000 0.000000 1.000000 0.000000 0.000000 0.000000 1.000000 4196.dat
1 2 0.000000 -240.000000 -120.000000 1.000000 0.000000 0.000000 0.000000 1.000000 0.000000 0.000000 0.000000 1.000000 4196.dat
0 STEP
1 1 200.000000 -288.000000 160.000000 0.000000 0.000000 -1.000000 0.000000 1.000000 0.000000 1.000000 0.000000 0.000000 3011.dat
1 1 199.998200 -288.000000 -0.001210 0.000000 0.000000 1.000006 0.000000 1.000000 0.000000 -1.000006 0.000000 0.000000 3011.dat
1 1 199.998300 -288.000000 -160.001900 0.000000 0.000000 1.000006 0.000000 1.000000 0.000000 -1.000006 0.000000 0.000000 3011.dat
1 1 -200.003900 -288.000000 159.999900 0.000000 0.000000 -1.000006 0.000000 1.000000 0.000000 1.000006 0.000000 0.000000 3011.dat
1 1 -200.004000 -288.000000 -0.001210 0.000000 0.000000 1.000006 0.000000 1.000000 0.000000 -1.000006 0.000000 0.000000 3011.dat
1 1 -200.003900 -288.000000 -160.002200 0.000000 0.000000 1.000006 0.000000 1.000000 0.000000 -1.000006 0.000000 0.000000 3011.dat
1 1 -80.003260 -288.000000 -200.002100 1.000006 0.000000 0.000000 0.000000 1.000000 0.000000 0.000000 0.000000 1.000006 3011.dat
1 1 79.997780 -288.000000 -200.002100 1.000006 0.000000 0.000000 0.000000 1.000000 0.000000 0.000000 0.000000 1.000006 3011.dat
1 27 199.998200 -336.000000 200.000400 0.000000 0.000000 1.000006 0.000000 1.000000 0.000000 -1.000006 0.000000 0.000000 3437.dat
1 27 -200.004000 -336.000000 200.000300 0.000000 0.000000 1.000006 0.000000 1.000000 0.000000 -1.000006 0.000000 0.000000 3437.dat
1 27 199.998200 -336.000000 79.999620 0.000000 0.000000 1.000006 0.000000 1.000000 0.000000 -1.000006 0.000000 0.000000 3011.dat
1 27 199.998200 -336.000000 -80.001610 0.000000 0.000000 1.000006 0.000000 1.000000 0.000000 -1.000006 0.000000 0.000000 3011.dat
1 27 159.998100 -336.000000 -200.002100 -1.000006 0.000000 0.000000 0.000000 1.000000 0.000000 0.000000 0.000000 -1.000006 3011.dat
1 27 -0.002650 -336.000000 -200.002100 -1.000006 0.000000 0.000000 0.000000 1.000000 0.000000 0.000000 0.000000 -1.000006 3011.dat
1 27 -160.003500 -336.000000 -200.002100 -1.000006 0.000000 0.000000 0.000000 1.000000 0.000000 0.000000 0.000000 -1.000006 3011.dat
1 27 -200.003900 -336.000000 -80.001610 0.000000 0.000000 1.000006 0.000000 1.000000 0.000000 -1.000006 0.000000 0.000000 3011.dat
1 27 -200.003900 -336.000000 79.999620 0.000000 0.000000 1.000006 0.000000 1.000000 0.000000 -1.000006 0.000000 0.000000 3011.dat
1 1 199.998200 -384.000000 160.000100 0.000000 0.000000 -1.000006 0.000000 1.000000 0.000000 1.000006 0.000000 0.000000 3011.dat
1 1 199.998200 -384.000000 -0.001330 0.000000 0.000000 1.000006 0.000000 1.000000 0.000000 -1.000006 0.000000 0.000000 3011.dat
1 1 199.998300 -384.000000 -160.002000 0.000000 0.000000 1.000006 0.000000 1.000000 0.000000 -1.000006 0.000000 0.000000 3011.dat
1 1 -200.004100 -384.000000 159.999800 0.000000 0.000000 -1.000007 0.000000 1.000000 0.000000 1.000007 0.000000 0.000000 3011.dat
1 1 -200.004000 -384.000000 -0.001330 0.000000 0.000000 1.000007 0.000000 1.000000 0.000000 -1.000007 0.000000 0.000000 3011.dat
1 1 -200.004000 -384.000000 -160.002300 0.000000 0.000000 1.000007 0.000000 1.000000 0.000000 -1.000007 0.000000 0.000000 3011.dat
1 1 -80.003260 -384.000000 -200.002200 1.000006 0.000000 0.000000 0.000000 1.000000 0.000000 0.000000 0.000000 1.000006 3011.dat
1 1 79.997780 -384.000000 -200.002200 1.000007 0.000000 0.000000 0.000000 1.000000 0.000000 0.000000 0.000000 1.000007 3011.dat
1 27 199.998200 -432.000000 200.000400 0.000000 0.000000 1.000007 0.000000 1.000000 0.000000 -1.000007 0.000000 0.000000 3437.dat
1 27 -200.004100 -432.000000 200.000300 0.000000 0.000000 1.000006 0.000000 1.000000 0.000000 -1.000006 0.000000 0.000000 3437.dat
1 27 199.998200 -432.000000 79.999490 0.000000 0.000000 1.000006 0.000000 1.000000 0.000000 -1.000006 0.000000 0.000000 3011.dat
1 27 199.998200 -432.000000 -80.001740 0.000000 0.000000 1.000006 0.000000 1.000000 0.000000 -1.000006 0.000000 0.000000 3011.dat
1 27 159.998100 -432.000000 -200.002200 -1.000007 0.000000 0.000000 0.000000 1.000000 0.000000 0.000000 0.000000 -1.000007 3011.dat
1 27 -0.002770 -432.000000 -200.002200 -1.000007 0.000000 0.000000 0.000000 1.000000 0.000000 0.000000 0.000000 -1.000007 3011.dat
1 27 -160.003600 -432.000000 -200.002200 -1.000007 0.000000 0.000000 0.000000 1.000000 0.000000 0.000000 0.000000 -1.000007 3011.dat
1 27 -200.004000 -432.000000 -80.001740 0.000000 0.000000 1.000006 0.000000 1.000000 0.000000 -1.000006 0.000000 0.000000 3011.dat
1 27 -200.004100 -432.000000 79.999490 0.000000 0.000000 1.000006 0.000000 1.000000 0.000000 -1.000006 0.000000 0.000000 3011.dat
1 1 199.998200 -480.000000 160.000100 0.000000 0.000000 -1.000006 0.000000 1.000000 0.000000 1.000006 0.000000 0.000000 3011.dat
1 1 199.998300 -480.000000 -0.001090 0.000000 0.000000 1.000006 0.000000 1.000000 0.000000 -1.000006 0.000000 0.000000 3011.dat
1 1 199.998300 -480.000000 -160.001800 0.000000 0.000000 1.000006 0.000000 1.000000 0.000000 -1.000006 0.000000 0.000000 3011.dat
1 1 -200.004000 -480.000000 160.000200 0.000000 0.000000 -1.000007 0.000000 1.000000 0.000000 1.000007 0.000000 0.000000 3011.dat
1 1 -200.004000 -480.000000 -0.001090 0.000000 0.000000 1.000007 0.000000 1.000000 0.000000 -1.000007 0.000000 0.000000 3011.dat
1 1 -200.004000 -480.000000 -160.002000 0.000000 0.000000 1.000007 0.000000 1.000000 0.000000 -1.000007 0.000000 0.000000 3011.dat
1 1 -80.003140 -480.000000 -200.002000 1.000006 0.000000 0.000000 0.000000 1.000000 0.000000 0.000000 0.000000 1.000006 3011.dat
1 1 79.997780 -480.000000 -200.002000 1.000007 0.000000 0.000000 0.000000 1.000000 0.000000 0.000000 0.000000 1.000007 3011.dat
0 STEP
1 7 1.000000 -275.000000 11.000000 1.000000 0.000000 0.000000 0.000000 1.000000 0.000000 0.000000 0.000000 1.000000 51262.dat
1 1 -79.000270 -323.000000 -108.999900 1.000000 0.000000 0.000000 0.000000 1.000000 0.000000 0.000000 0.000000 1.000000 3011.dat
1 1 81.000110 -323.000000 -109.000100 1.000000 0.000000 0.000000 0.000000 1.000000 0.000000 0.000000 0.000000 1.000000 3011.dat
1 1 -79.000270 -323.000000 131.000000 1.000000 0.000000 0.000000 0.000000 1.000000 0.000000 0.000000 0.000000 1.000000 3011.dat
1 1 81.000110 -323.000000 131.000000 1.000000 0.000000 0.000000 0.000000 1.000000 0.000000 0.000000 0.000000 1.000000 3011.dat
1 1 -119.000100 -323.000000 11.000000 0.000000 0.000000 1.000000 0.000000 1.000000 0.000000 -1.000000 0.000000 0.000000 3011.dat
1 1 121.000200 -323.000000 11.000000 0.000000 0.000000 1.000000 0.000000 1.000000 0.000000 -1.000000 0.000000 0.000000 3011.dat
1 14 -119.000100 -371.000000 -69.000120 0.000000 0.000000 1.000000 0.000000 1.000000 0.000000 -1.000000 0.000000 0.000000 3011.dat
1 14 -119.000500 -371.000000 91.001010 0.000000 0.000000 1.000000 0.000000 1.000000 0.000000 -1.000000 0.000000 0.000000 3011.dat
1 14 121.000200 -371.000000 -69.000120 0.000000 0.000000 1.000000 0.000000 1.000000 0.000000 -1.000000 0.000000 0.000000 3011.dat
1 14 121.000200 -371.000000 90.999790 0.000000 0.000000 1.000000 0.000000 1.000000 0.000000 -1.000000 0.000000 0.000000 3011.dat
1 14 0.999990 -371.000000 -109.000100 1.000000 0.000000 0.000000 0.000000 1.000000 0.000000 0.000000 0.000000 1.000000 3011.dat
1 14 0.999990 -371.000000 131.000000 1.000000 0.000000 0.000000 0.000000 1.000000 0.000000 0.000000 0.000000 1.000000 3011.dat
1 1 0.999990 -419.000000 -109.000100 1.000000 0.000000 0.000000 0.000000 1.000000 0.000000 0.000000 0.000000 1.000000 3011.dat
1 4 2.500020 -371.000000 220.876540 -1.000000 0.000000 0.000000 0.000000 1.000000 0.000000 0.000000 0.000000 -1.000000 42029.dat
1 1 -119.000100 -419.000000 90.999790 0.000000 0.000000 1.000000 0.000000 1.000000 0.000000 -1.000000 0.000000 0.000000 3011.dat
1 1 -119.000100 -419.000000 -69.000120 0.000000 0.000000 1.000000 0.000000 1.000000 0.000000 -1.000000 0.000000 0.000000 3011.dat
1 1 121.000200 -419.000000 -69.000120 0.000000 0.000000 1.000000 0.000000 1.000000 0.000000 -1.000000 0.000000 0.000000 3011.dat
1 1 121.000200 -419.000000 90.999790 0.000000 0.000000 1.000000 0.000000 1.000000 0.000000 -1.000000 0.000000 0.000000 3011.dat
1 14 -119.000000 -467.000000 -67.000000 0.000000 0.000000 1.000000 0.000000 1.000000 0.000000 -1.000000 0.000000 0.000000 3011.dat
1 14 -119.000000 -467.000000 93.000000 0.000000 0.000000 1.000000 0.000000 1.000000 0.000000 -1.000000 0.000000 0.000000 3011.dat
1 14 121.000000 -467.000000 -67.000060 0.000000 0.000000 1.000000 0.000000 1.000000 0.000000 -1.000000 0.000000 0.000000 3011.dat
1 14 121.000000 -467.000000 93.000000 0.000000 0.000000 1.000000 0.000000 1.000000 0.000000 -1.000000 0.000000 0.000000 3011.dat
1 14 0.999970 -467.000000 -107.000000 1.000000 0.000000 0.000000 0.000000 1.000000 0.000000 0.000000 0.000000 1.000000 3011.dat
1 14 0.999990 -467.000000 133.000000 1.000000 0.000000 0.000000 0.000000 1.000000 0.000000 0.000000 0.000000 1.000000 3011.dat
0 STEP
1 2 0.000000 -504.000000 120.000000 1.000000 0.000000 0.000000 0.000000 1.000000 0.000000 0.000000 0.000000 1.000000 4196.dat
1 2 0.000000 -504.000000 -120.000000 1.000000 0.000000 0.000000 0.000000 1.000000 0.000000 0.000000 0.000000 1.000000 4196.dat
0 STEP
