0 长颈鹿
0 Name: 3-chang-jing-lu.ldr
0 Author: Image to LDraw Skill
0 !LICENSE Redistributable under CCAL version 2.0 : see CAreadme.txt
0 BFC CERTIFY CCW
0 // Generated from reviewed assembly JSON. Each 0 STEP follows one source step.
0 // Step 1: 搭建四肢
1 25 -80 0 -160 0 0 1 0 1 0 -1 0 0 2302.dat
1 25 -80 -48 -160 1 0 0 0 1 0 0 0 1 3437.dat
1 14 -80 -96 -160 0 0 1 0 1 0 -1 0 0 3011.dat
1 25 -80 -144 -160 0 0 1 0 1 0 -1 0 0 3011.dat
1 14 -80 -192 -160 0 0 1 0 1 0 -1 0 0 3011.dat
1 25 -80 -240 -160 0 0 1 0 1 0 -1 0 0 3011.dat
1 25 80 0 -160 0 0 1 0 1 0 -1 0 0 2302.dat
1 25 80 -48 -160 1 0 0 0 1 0 0 0 1 3437.dat
1 14 80 -96 -160 0 0 1 0 1 0 -1 0 0 3011.dat
1 25 80 -144 -160 0 0 1 0 1 0 -1 0 0 3011.dat
1 14 80 -192 -160 0 0 1 0 1 0 -1 0 0 3011.dat
1 25 80 -240 -160 0 0 1 0 1 0 -1 0 0 3011.dat
1 25 -80 0 160 0 0 1 0 1 0 -1 0 0 2302.dat
1 25 -80 -48 160 1 0 0 0 1 0 0 0 1 3437.dat
1 14 -80 -96 160 0 0 1 0 1 0 -1 0 0 3011.dat
1 25 -80 -144 160 0 0 1 0 1 0 -1 0 0 3011.dat
1 14 -80 -192 160 0 0 1 0 1 0 -1 0 0 3011.dat
1 25 -80 -240 160 0 0 1 0 1 0 -1 0 0 3011.dat
1 25 80 0 160 0 0 1 0 1 0 -1 0 0 2302.dat
1 25 80 -48 160 1 0 0 0 1 0 0 0 1 3437.dat
1 14 80 -96 160 0 0 1 0 1 0 -1 0 0 3011.dat
1 25 80 -144 160 0 0 1 0 1 0 -1 0 0 3011.dat
1 14 80 -192 160 0 0 1 0 1 0 -1 0 0 3011.dat
1 25 80 -240 160 0 0 1 0 1 0 -1 0 0 3011.dat
1 4 0 -264 0 0 0 1 0 1 0 -1 0 0 4196.dat
0 STEP
0 // Step 2: 搭建身体
1 4 0 -288 -200 -1 0 0 0 1 0 0 0 -1 42029.dat
1 4 0 -288 200 1 0 0 0 1 0 0 0 1 42029.dat
1 14 -80 -312 0 0 0 1 0 1 0 -1 0 0 3011.dat
1 25 0 -312 0 0 0 1 0 1 0 -1 0 0 3011.dat
1 14 80 -312 0 0 0 1 0 1 0 -1 0 0 3011.dat
0 STEP
0 // Step 3: 连接尾巴
1 1 0 -304 240 0 -1 0 1 0 0 0 0 1 31195.dat
1 1 0 -284 312 0 -1 0 0.707107 0 -0.707107 0.707107 0 0.707107 31195.dat
0 STEP
0 // Step 4: 完善身体
1 25 -80 -360 -80 0 0 1 0 1 0 -1 0 0 3011.dat
1 14 0 -360 -80 0 0 1 0 1 0 -1 0 0 3011.dat
1 25 80 -360 -80 0 0 1 0 1 0 -1 0 0 3011.dat
1 14 -80 -360 80 0 0 1 0 1 0 -1 0 0 3011.dat
1 25 0 -360 80 0 0 1 0 1 0 -1 0 0 3011.dat
1 14 80 -360 80 0 0 1 0 1 0 -1 0 0 3011.dat
1 14 0 -408 0 0 0 1 0 1 0 -1 0 0 3011.dat
0 STEP
0 // Step 5: 搭建颈部
1 4 0 -304 -232 1 0 0 0 0 -1 0 1 0 31452.dat
1 1 0 -424 -232 1 0 0 0 0 -1 0 1 0 31452.dat
1 4 0 -544 -232 1 0 0 0 0 -1 0 1 0 31452.dat
1 1 0 -664 -232 -1 0 0 0 0 -1 0 -1 0 31195.dat
1 4 0 -700 -292 -1 0 0 0 0 -1 0 -1 0 31195.dat
1 1 0 -728 -344 0 -1 0 -1 0 0 0 0 -1 31195.dat
0 STEP
0 // Step 6: 搭建头部
1 14 0 -784 -328 1 0 0 0 1 0 0 0 1 31191.dat
1 14 0 -592 -328 1 0 0 0 1 0 0 0 1 3011.dat
0 STEP
0 // Step 7: 搭建眼睛
1 14 0 -832 -328 1 0 0 0 1 0 0 0 1 3011.dat
1 25 -40 -880 -368 1 0 0 0 1 0 0 0 1 3437.dat
1 25 40 -880 -368 1 0 0 0 1 0 0 0 1 3437.dat
1 25 -60 -880 -388 1 0 0 0 1 0 0 0 1 2302.dat
1 25 60 -880 -388 -1 0 0 0 1 0 0 0 -1 2302.dat
0 STEP
0 // Step 8: 搭建头角
1 14 -40 -928 -328 1 0 0 0 1 0 0 0 1 3437.dat
1 25 -40 -976 -328 1 0 0 0 1 0 0 0 1 3437.dat
1 14 -40 -1024 -328 1 0 0 0 1 0 0 0 1 3437.dat
1 25 -40 -1072 -328 1 0 0 0 1 0 0 0 1 3437.dat
1 14 40 -928 -328 1 0 0 0 1 0 0 0 1 3437.dat
1 25 40 -976 -328 1 0 0 0 1 0 0 0 1 3437.dat
1 14 40 -1024 -328 1 0 0 0 1 0 0 0 1 3437.dat
1 25 40 -1072 -328 1 0 0 0 1 0 0 0 1 3437.dat
0 STEP
0 // Step 9: 成品展示
0 STEP
