0 LEGO Eiffel Tower (STEAM 课件 · 13 步搭建)
0 Name: eiffel-tower.ldr
0 Author: Arron
0 !LICENSE Redistributable under CCAL version 2.0 : see CAreadme.txt
0 BFC CERTIFY CCW
0 // 由 scripts/ldraw-models/gen-eiffel.mjs 生成；每个 0 STEP 对应搭建说明 PDF 的一页。
0 // Step 1: 绿色底板 + 4 条蓝色外八字腿（每条 L 形，叠 2 层）
1 2 0 0 0 1 0 0 0 1 0 0 0 1 3811.dat
1 1 90 0 30 1 0 0 0 1 0 0 0 1 3001.dat
1 1 30 0 90 0 0 1 0 1 0 -1 0 0 3001.dat
1 1 90 0 -30 1 0 0 0 1 0 0 0 1 3001.dat
1 1 30 0 -90 0 0 1 0 1 0 -1 0 0 3001.dat
1 1 -90 0 30 1 0 0 0 1 0 0 0 1 3001.dat
1 1 -30 0 90 0 0 1 0 1 0 -1 0 0 3001.dat
1 1 -90 0 -30 1 0 0 0 1 0 0 0 1 3001.dat
1 1 -30 0 -90 0 0 1 0 1 0 -1 0 0 3001.dat
1 1 90 -24 30 1 0 0 0 1 0 0 0 1 3001.dat
1 1 30 -24 90 0 0 1 0 1 0 -1 0 0 3001.dat
1 1 90 -24 -30 1 0 0 0 1 0 0 0 1 3001.dat
1 1 30 -24 -90 0 0 1 0 1 0 -1 0 0 3001.dat
1 1 -90 -24 30 1 0 0 0 1 0 0 0 1 3001.dat
1 1 -30 -24 90 0 0 1 0 1 0 -1 0 0 3001.dat
1 1 -90 -24 -30 1 0 0 0 1 0 0 0 1 3001.dat
1 1 -30 -24 -90 0 0 1 0 1 0 -1 0 0 3001.dat
0 STEP
0 // Step 2: 在蓝腿上叠一层红色 2x4
1 4 90 -48 30 1 0 0 0 1 0 0 0 1 3001.dat
1 4 30 -48 90 0 0 1 0 1 0 -1 0 0 3001.dat
1 4 90 -48 -30 1 0 0 0 1 0 0 0 1 3001.dat
1 4 30 -48 -90 0 0 1 0 1 0 -1 0 0 3001.dat
1 4 -90 -48 30 1 0 0 0 1 0 0 0 1 3001.dat
1 4 -30 -48 90 0 0 1 0 1 0 -1 0 0 3001.dat
1 4 -90 -48 -30 1 0 0 0 1 0 0 0 1 3001.dat
1 4 -30 -48 -90 0 0 1 0 1 0 -1 0 0 3001.dat
0 STEP
0 // Step 3: 盖上灰色 8x8 平台，桥接 4 条腿
1 71 0 -72 0 1 0 0 0 1 0 0 0 1 41539.dat
0 STEP
0 // Step 4: 平台上叠红色风车圈（2 层）收窄塔身
1 4 -20 -80 -40 1 0 0 0 1 0 0 0 1 3001.dat
1 4 40 -80 -20 0 0 1 0 1 0 -1 0 0 3001.dat
1 4 20 -80 40 1 0 0 0 1 0 0 0 1 3001.dat
1 4 -40 -80 20 0 0 1 0 1 0 -1 0 0 3001.dat
1 4 -20 -104 -40 1 0 0 0 1 0 0 0 1 3001.dat
1 4 40 -104 -20 0 0 1 0 1 0 -1 0 0 3001.dat
1 4 20 -104 40 1 0 0 0 1 0 0 0 1 3001.dat
1 4 -40 -104 20 0 0 1 0 1 0 -1 0 0 3001.dat
0 STEP
0 // Step 5: 四角立起蓝色 2x2 柱（2 层）
1 1 40 -128 40 1 0 0 0 1 0 0 0 1 3003.dat
1 1 40 -128 -40 1 0 0 0 1 0 0 0 1 3003.dat
1 1 -40 -128 40 1 0 0 0 1 0 0 0 1 3003.dat
1 1 -40 -128 -40 1 0 0 0 1 0 0 0 1 3003.dat
1 1 40 -152 40 1 0 0 0 1 0 0 0 1 3003.dat
1 1 40 -152 -40 1 0 0 0 1 0 0 0 1 3003.dat
1 1 -40 -152 40 1 0 0 0 1 0 0 0 1 3003.dat
1 1 -40 -152 -40 1 0 0 0 1 0 0 0 1 3003.dat
0 STEP
0 // Step 6: 盖上第二块灰色平台
1 71 0 -176 0 1 0 0 0 1 0 0 0 1 41539.dat
0 STEP
0 // Step 7: 叠蓝色风车圈（2 层）
1 1 -20 -184 -40 1 0 0 0 1 0 0 0 1 3001.dat
1 1 40 -184 -20 0 0 1 0 1 0 -1 0 0 3001.dat
1 1 20 -184 40 1 0 0 0 1 0 0 0 1 3001.dat
1 1 -40 -184 20 0 0 1 0 1 0 -1 0 0 3001.dat
1 1 -20 -208 -40 1 0 0 0 1 0 0 0 1 3001.dat
1 1 40 -208 -20 0 0 1 0 1 0 -1 0 0 3001.dat
1 1 20 -208 40 1 0 0 0 1 0 0 0 1 3001.dat
1 1 -40 -208 20 0 0 1 0 1 0 -1 0 0 3001.dat
0 STEP
0 // Step 8: 加一圈红色 2x4 薄板装饰带
1 4 -20 -232 -40 1 0 0 0 1 0 0 0 1 3020.dat
1 4 40 -232 -20 0 0 1 0 1 0 -1 0 0 3020.dat
1 4 20 -232 40 1 0 0 0 1 0 0 0 1 3020.dat
1 4 -40 -232 20 0 0 1 0 1 0 -1 0 0 3020.dat
0 STEP
0 // Step 9: 中央叠蓝色 4x4 实心塔芯（2 层）
1 1 0 -240 -20 1 0 0 0 1 0 0 0 1 3001.dat
1 1 0 -240 20 1 0 0 0 1 0 0 0 1 3001.dat
1 1 0 -264 -20 1 0 0 0 1 0 0 0 1 3001.dat
1 1 0 -264 20 1 0 0 0 1 0 0 0 1 3001.dat
0 STEP
0 // Step 10: 中央竖起蓝红条纹塔尖（下段 4 块 2x2 交替）
1 1 0 -288 0 1 0 0 0 1 0 0 0 1 3003.dat
1 4 0 -312 0 1 0 0 0 1 0 0 0 1 3003.dat
1 1 0 -336 0 1 0 0 0 1 0 0 0 1 3003.dat
1 4 0 -360 0 1 0 0 0 1 0 0 0 1 3003.dat
0 STEP
0 // Step 11: 塔尖上加一块灰色观景平台
1 71 0 -384 -20 1 0 0 0 1 0 0 0 1 3020.dat
1 71 0 -384 20 1 0 0 0 1 0 0 0 1 3020.dat
0 STEP
0 // Step 12: 平台上接塔尖上段与顶帽（3 块 2x2 交替）
1 1 0 -392 0 1 0 0 0 1 0 0 0 1 3003.dat
1 4 0 -416 0 1 0 0 0 1 0 0 0 1 3003.dat
1 1 0 -440 0 1 0 0 0 1 0 0 0 1 3003.dat
0 STEP
0 // Step 13: 完成！这就是积木版埃菲尔铁塔
0 STEP
