0 Preschool Animal House
0 Name: preschool-house.ldr
0 Author: STEAM Explore
0 !LICENSE Redistributable under CCAL version 2.0 : see CAreadme.txt
0 BFC CERTIFY CCW
0 // Uses LDraw Duplo parts. Each 0 STEP matches a lesson step.
0 // Step 1: place the animal friend marker
1 22 0 0 -40 1 0 0 0 1 0 0 0 1 3437.dat
0 STEP
0 // Step 2: build three walls and leave a doorway
1 1 -80 0 40 0 0 1 0 1 0 -1 0 0 3011.dat
1 1 80 0 40 0 0 1 0 1 0 -1 0 0 3011.dat
1 1 0 0 160 1 0 0 0 1 0 0 0 1 3011.dat
0 STEP
0 // Step 3: add a simple roof cap supported by the walls
1 25 0 -48 40 1 0 0 0 1 0 0 0 1 3011.dat
1 25 0 -48 120 1 0 0 0 1 0 0 0 1 3011.dat
0 STEP
0 // Step 4: add a name block on top of the supported roof
1 4 0 -96 40 1 0 0 0 1 0 0 0 1 3437.dat
0 STEP
