0 Preschool Strong Bridge
0 Name: preschool-bridge.ldr
0 Author: STEAM Explore
0 !LICENSE Redistributable under CCAL version 2.0 : see CAreadme.txt
0 BFC CERTIFY CCW
0 // Uses LDraw Duplo parts. Each 0 STEP matches a lesson step.
0 // Step 1: two bridge piers
1 1 -80 0 0 1 0 0 0 1 0 0 0 1 3437.dat
1 1 80 0 0 1 0 0 0 1 0 0 0 1 3437.dat
1 1 -80 -48 0 1 0 0 0 1 0 0 0 1 3437.dat
1 1 80 -48 0 1 0 0 0 1 0 0 0 1 3437.dat
0 STEP
0 // Step 2: bridge deck spanning the piers
1 14 0 -96 0 1 0 0 0 1 0 0 0 1 3011.dat
0 STEP
0 // Step 3: side guards on the bridge deck
1 4 -40 -144 0 1 0 0 0 1 0 0 0 1 3437.dat
1 4 40 -144 0 1 0 0 0 1 0 0 0 1 3437.dat
0 STEP
0 // Step 4: add a test block below the opening
1 25 0 0 0 1 0 0 0 1 0 0 0 1 3437.dat
0 STEP
