0 Preschool Height Platform
0 Name: preschool-ramp.ldr
0 Author: STEAM Explore
0 !LICENSE Redistributable under CCAL version 2.0 : see CAreadme.txt
0 BFC CERTIFY CCW
0 // Uses LDraw Duplo parts. Each 0 STEP matches a lesson step.
0 // Step 1: build two equal supports for a raised platform
1 1 -80 0 0 1 0 0 0 1 0 0 0 1 3437.dat
1 1 80 0 0 1 0 0 0 1 0 0 0 1 3437.dat
1 1 -80 -48 0 1 0 0 0 1 0 0 0 1 3437.dat
1 1 80 -48 0 1 0 0 0 1 0 0 0 1 3437.dat
0 STEP
0 // Step 2: place the long platform across both supports
1 14 0 -96 0 1 0 0 0 1 0 0 0 1 3011.dat
0 STEP
0 // Step 3: place a test block on the high platform
1 4 0 -144 0 1 0 0 0 1 0 0 0 1 3437.dat
0 STEP
0 // Step 4: add a low comparison platform
1 2 220 0 -40 1 0 0 0 1 0 0 0 1 3437.dat
1 2 220 0 40 1 0 0 0 1 0 0 0 1 3437.dat
0 STEP
