0 Preschool Lift Tower
0 Name: preschool-crane.ldr
0 Author: STEAM Explore
0 !LICENSE Redistributable under CCAL version 2.0 : see CAreadme.txt
0 BFC CERTIFY CCW
0 // Uses LDraw Duplo parts. Each 0 STEP matches a lesson step.
0 // Step 1: wide base
1 1 0 0 -40 1 0 0 0 1 0 0 0 1 3011.dat
1 1 0 0 40 1 0 0 0 1 0 0 0 1 3011.dat
0 STEP
0 // Step 2: tower column
1 14 0 -48 0 1 0 0 0 1 0 0 0 1 3437.dat
1 14 0 -96 0 1 0 0 0 1 0 0 0 1 3437.dat
1 14 0 -144 0 1 0 0 0 1 0 0 0 1 3437.dat
0 STEP
0 // Step 3: arm
1 25 80 -192 0 1 0 0 0 1 0 0 0 1 3011.dat
0 STEP
0 // Step 4: load target on the floor
1 4 180 0 0 1 0 0 0 1 0 0 0 1 3437.dat
0 STEP
