0 Preschool Turn Pointer
0 Name: preschool-gears.ldr
0 Author: STEAM Explore
0 !LICENSE Redistributable under CCAL version 2.0 : see CAreadme.txt
0 BFC CERTIFY CCW
0 // Uses LDraw Duplo parts. Each 0 STEP matches a lesson step.
0 // Step 1: base plate
1 7 0 0 0 1 0 0 0 1 0 0 0 1 3011.dat
0 STEP
0 // Step 2: central pivot
1 14 0 -48 0 1 0 0 0 1 0 0 0 1 3437.dat
0 STEP
0 // Step 3: long pointer placed straight across the supported center
1 25 0 -96 0 1 0 0 0 1 0 0 0 1 3011.dat
0 STEP
0 // Step 4: add two direction markers
1 4 -120 0 -120 1 0 0 0 1 0 0 0 1 3437.dat
1 2 120 0 120 1 0 0 0 1 0 0 0 1 3437.dat
0 STEP
