0 东方明珠 Oriental Pearl Tower (DUPLO 3+)
0 Name: dongfangmingzhu_duplo.ldr
0 Author: Cursor Agent
0 !LDRAW_ORG Unofficial_Model
0 // 依据《3+ 东方明珠搭建说明》PDF 重建, 共 9 个搭建步骤 (对应 PDF 第 1-9 页, 第 10 页为完成图)
0 // 零件清单:
0 //   4268 得宝底板 24x24 (绿) x1
0 //   3011 得宝砖 2x4: 黄 x60, 蓝 x52
0 //   3437 得宝砖 2x2: 黄 x8
0 // 坐标: 得宝 1 格 = 40 LDU, 砖高 = 48 LDU, 塔轴心在原点
0 // ============================================================
0 // 第 1 步 (PDF p1): 底板 + 四条阶梯塔腿, 黄 2x4 x24
0 // 每腿 3 层, 每层 2 块拼成 4x4, 自下而上逐层向塔心收进 2 格
1 2 0 0 0 1 0 0 0 1 0 0 0 1 4268.dat
0 // +X 方向腿 (底层横放 / 上两层纵放)
1 14 320 -48 0 0 0 -1 0 1 0 1 0 0 3011.dat
1 14 400 -48 0 0 0 -1 0 1 0 1 0 0 3011.dat
1 14 280 -96 -40 1 0 0 0 1 0 0 0 1 3011.dat
1 14 280 -96 40 1 0 0 0 1 0 0 0 1 3011.dat
1 14 200 -144 -40 1 0 0 0 1 0 0 0 1 3011.dat
1 14 200 -144 40 1 0 0 0 1 0 0 0 1 3011.dat
0 // -X 方向腿
1 14 -320 -48 0 0 0 -1 0 1 0 1 0 0 3011.dat
1 14 -400 -48 0 0 0 -1 0 1 0 1 0 0 3011.dat
1 14 -280 -96 -40 1 0 0 0 1 0 0 0 1 3011.dat
1 14 -280 -96 40 1 0 0 0 1 0 0 0 1 3011.dat
1 14 -200 -144 -40 1 0 0 0 1 0 0 0 1 3011.dat
1 14 -200 -144 40 1 0 0 0 1 0 0 0 1 3011.dat
0 // +Z 方向腿
1 14 0 -48 320 1 0 0 0 1 0 0 0 1 3011.dat
1 14 0 -48 400 1 0 0 0 1 0 0 0 1 3011.dat
1 14 -40 -96 280 0 0 -1 0 1 0 1 0 0 3011.dat
1 14 40 -96 280 0 0 -1 0 1 0 1 0 0 3011.dat
1 14 -40 -144 200 0 0 -1 0 1 0 1 0 0 3011.dat
1 14 40 -144 200 0 0 -1 0 1 0 1 0 0 3011.dat
0 // -Z 方向腿
1 14 0 -48 -320 1 0 0 0 1 0 0 0 1 3011.dat
1 14 0 -48 -400 1 0 0 0 1 0 0 0 1 3011.dat
1 14 -40 -96 -280 0 0 -1 0 1 0 1 0 0 3011.dat
1 14 40 -96 -280 0 0 -1 0 1 0 1 0 0 3011.dat
1 14 -40 -144 -200 0 0 -1 0 1 0 1 0 0 3011.dat
1 14 40 -144 -200 0 0 -1 0 1 0 1 0 0 3011.dat
0 STEP
0 // ============================================================
0 // 第 2 步 (PDF p2): 中央塔芯, 黄 2x4 x20
0 // 6x6 风车形方环 (中心留 2x2 孔) x5 层, 相邻层风车反向交错
0 // 第 1 层
1 14 -40 -48 -80 1 0 0 0 1 0 0 0 1 3011.dat
1 14 80 -48 -40 0 0 -1 0 1 0 1 0 0 3011.dat
1 14 40 -48 80 1 0 0 0 1 0 0 0 1 3011.dat
1 14 -80 -48 40 0 0 -1 0 1 0 1 0 0 3011.dat
0 // 第 2 层
1 14 40 -96 -80 1 0 0 0 1 0 0 0 1 3011.dat
1 14 80 -96 40 0 0 -1 0 1 0 1 0 0 3011.dat
1 14 -40 -96 80 1 0 0 0 1 0 0 0 1 3011.dat
1 14 -80 -96 -40 0 0 -1 0 1 0 1 0 0 3011.dat
0 // 第 3 层
1 14 -40 -144 -80 1 0 0 0 1 0 0 0 1 3011.dat
1 14 80 -144 -40 0 0 -1 0 1 0 1 0 0 3011.dat
1 14 40 -144 80 1 0 0 0 1 0 0 0 1 3011.dat
1 14 -80 -144 40 0 0 -1 0 1 0 1 0 0 3011.dat
0 // 第 4 层
1 14 40 -192 -80 1 0 0 0 1 0 0 0 1 3011.dat
1 14 80 -192 40 0 0 -1 0 1 0 1 0 0 3011.dat
1 14 -40 -192 80 1 0 0 0 1 0 0 0 1 3011.dat
1 14 -80 -192 -40 0 0 -1 0 1 0 1 0 0 3011.dat
0 // 第 5 层
1 14 -40 -240 -80 1 0 0 0 1 0 0 0 1 3011.dat
1 14 80 -240 -40 0 0 -1 0 1 0 1 0 0 3011.dat
1 14 40 -240 80 1 0 0 0 1 0 0 0 1 3011.dat
1 14 -80 -240 40 0 0 -1 0 1 0 1 0 0 3011.dat
0 STEP
0 // ============================================================
0 // 第 3 步 (PDF p3): 下球体下半部, 蓝 2x4 x20
0 // 逐层外扩: 4x4 实心 -> 6x6 环 -> 8x8 环 -> 10x10 环
0 // 4x4 实心 (2 块)
1 1 0 -288 -40 1 0 0 0 1 0 0 0 1 3011.dat
1 1 0 -288 40 1 0 0 0 1 0 0 0 1 3011.dat
0 // 6x6 风车环 (4 块)
1 1 -40 -336 -80 1 0 0 0 1 0 0 0 1 3011.dat
1 1 80 -336 -40 0 0 -1 0 1 0 1 0 0 3011.dat
1 1 40 -336 80 1 0 0 0 1 0 0 0 1 3011.dat
1 1 -80 -336 40 0 0 -1 0 1 0 1 0 0 3011.dat
0 // 8x8 环, 中孔 4x4 (6 块)
1 1 -80 -384 -120 1 0 0 0 1 0 0 0 1 3011.dat
1 1 80 -384 -120 1 0 0 0 1 0 0 0 1 3011.dat
1 1 120 -384 0 0 0 -1 0 1 0 1 0 0 3011.dat
1 1 -80 -384 120 1 0 0 0 1 0 0 0 1 3011.dat
1 1 80 -384 120 1 0 0 0 1 0 0 0 1 3011.dat
1 1 -120 -384 0 0 0 -1 0 1 0 1 0 0 3011.dat
0 // 10x10 风车环, 中孔 6x6 (8 块)
1 1 -120 -432 -160 1 0 0 0 1 0 0 0 1 3011.dat
1 1 40 -432 -160 1 0 0 0 1 0 0 0 1 3011.dat
1 1 160 -432 -120 0 0 -1 0 1 0 1 0 0 3011.dat
1 1 160 -432 40 0 0 -1 0 1 0 1 0 0 3011.dat
1 1 120 -432 160 1 0 0 0 1 0 0 0 1 3011.dat
1 1 -40 -432 160 1 0 0 0 1 0 0 0 1 3011.dat
1 1 -160 -432 120 0 0 -1 0 1 0 1 0 0 3011.dat
1 1 -160 -432 -40 0 0 -1 0 1 0 1 0 0 3011.dat
0 STEP
0 // ============================================================
0 // 第 4 步 (PDF p4): 下球体上半部, 蓝 2x4 x10
0 // 逐层收缩: 8x8 环 -> 6x6 环
0 // 8x8 环, 中孔 4x4 (6 块)
1 1 -120 -480 -80 0 0 -1 0 1 0 1 0 0 3011.dat
1 1 0 -480 -120 1 0 0 0 1 0 0 0 1 3011.dat
1 1 120 -480 -80 0 0 -1 0 1 0 1 0 0 3011.dat
1 1 120 -480 80 0 0 -1 0 1 0 1 0 0 3011.dat
1 1 0 -480 120 1 0 0 0 1 0 0 0 1 3011.dat
1 1 -120 -480 80 0 0 -1 0 1 0 1 0 0 3011.dat
0 // 6x6 风车环 (4 块)
1 1 40 -528 -80 1 0 0 0 1 0 0 0 1 3011.dat
1 1 80 -528 40 0 0 -1 0 1 0 1 0 0 3011.dat
1 1 -40 -528 80 1 0 0 0 1 0 0 0 1 3011.dat
1 1 -80 -528 -40 0 0 -1 0 1 0 1 0 0 3011.dat
0 STEP
0 // ============================================================
0 // 第 5 步 (PDF p5): 塔身立柱, 黄 2x4 x16
0 // 每层 2 块错位成 S 形, 相邻层旋转 90 度, 共 8 层螺旋交错
0 // 第 1 层 (沿 X)
1 14 -40 -576 -40 1 0 0 0 1 0 0 0 1 3011.dat
1 14 40 -576 40 1 0 0 0 1 0 0 0 1 3011.dat
0 // 第 2 层 (沿 Z)
1 14 40 -624 -40 0 0 -1 0 1 0 1 0 0 3011.dat
1 14 -40 -624 40 0 0 -1 0 1 0 1 0 0 3011.dat
0 // 第 3 层 (沿 X)
1 14 -40 -672 -40 1 0 0 0 1 0 0 0 1 3011.dat
1 14 40 -672 40 1 0 0 0 1 0 0 0 1 3011.dat
0 // 第 4 层 (沿 Z)
1 14 40 -720 -40 0 0 -1 0 1 0 1 0 0 3011.dat
1 14 -40 -720 40 0 0 -1 0 1 0 1 0 0 3011.dat
0 // 第 5 层 (沿 X)
1 14 -40 -768 -40 1 0 0 0 1 0 0 0 1 3011.dat
1 14 40 -768 40 1 0 0 0 1 0 0 0 1 3011.dat
0 // 第 6 层 (沿 Z)
1 14 40 -816 -40 0 0 -1 0 1 0 1 0 0 3011.dat
1 14 -40 -816 40 0 0 -1 0 1 0 1 0 0 3011.dat
0 // 第 7 层 (沿 X)
1 14 -40 -864 -40 1 0 0 0 1 0 0 0 1 3011.dat
1 14 40 -864 40 1 0 0 0 1 0 0 0 1 3011.dat
0 // 第 8 层 (沿 Z)
1 14 40 -912 -40 0 0 -1 0 1 0 1 0 0 3011.dat
1 14 -40 -912 40 0 0 -1 0 1 0 1 0 0 3011.dat
0 STEP
0 // ============================================================
0 // 第 6 步 (PDF p6): 上球体下半部, 蓝 2x4 x12
0 // 4x4 实心 -> 6x6 环 -> 8x8 环
0 // 4x4 实心 (2 块)
1 1 0 -960 -40 1 0 0 0 1 0 0 0 1 3011.dat
1 1 0 -960 40 1 0 0 0 1 0 0 0 1 3011.dat
0 // 6x6 风车环 (4 块)
1 1 -40 -1008 -80 1 0 0 0 1 0 0 0 1 3011.dat
1 1 80 -1008 -40 0 0 -1 0 1 0 1 0 0 3011.dat
1 1 40 -1008 80 1 0 0 0 1 0 0 0 1 3011.dat
1 1 -80 -1008 40 0 0 -1 0 1 0 1 0 0 3011.dat
0 // 8x8 环, 中孔 4x4 (6 块)
1 1 -80 -1056 -120 1 0 0 0 1 0 0 0 1 3011.dat
1 1 80 -1056 -120 1 0 0 0 1 0 0 0 1 3011.dat
1 1 120 -1056 0 0 0 -1 0 1 0 1 0 0 3011.dat
1 1 -80 -1056 120 1 0 0 0 1 0 0 0 1 3011.dat
1 1 80 -1056 120 1 0 0 0 1 0 0 0 1 3011.dat
1 1 -120 -1056 0 0 0 -1 0 1 0 1 0 0 3011.dat
0 STEP
0 // ============================================================
0 // 第 7 步 (PDF p7): 上球体上半部, 蓝 2x4 x6
0 // 6x6 环 -> 4x4 实心收顶
0 // 6x6 风车环 (4 块)
1 1 40 -1104 -80 1 0 0 0 1 0 0 0 1 3011.dat
1 1 80 -1104 40 0 0 -1 0 1 0 1 0 0 3011.dat
1 1 -40 -1104 80 1 0 0 0 1 0 0 0 1 3011.dat
1 1 -80 -1104 -40 0 0 -1 0 1 0 1 0 0 3011.dat
0 // 4x4 实心 (2 块)
1 1 -40 -1152 0 0 0 -1 0 1 0 1 0 0 3011.dat
1 1 40 -1152 0 0 0 -1 0 1 0 1 0 0 3011.dat
0 STEP
0 // ============================================================
0 // 第 8 步 (PDF p8): 天线立柱, 黄 2x2 x5 居中直叠
1 14 0 -1200 0 1 0 0 0 1 0 0 0 1 3437.dat
1 14 0 -1248 0 1 0 0 0 1 0 0 0 1 3437.dat
1 14 0 -1296 0 1 0 0 0 1 0 0 0 1 3437.dat
1 14 0 -1344 0 1 0 0 0 1 0 0 0 1 3437.dat
1 14 0 -1392 0 1 0 0 0 1 0 0 0 1 3437.dat
0 STEP
0 // ============================================================
0 // 第 9 步 (PDF p9): 天线上部
0 // 蓝 2x4 x4: 4x4 实心两层十字交错, 叠在天线柱顶
1 1 0 -1440 -40 1 0 0 0 1 0 0 0 1 3011.dat
1 1 0 -1440 40 1 0 0 0 1 0 0 0 1 3011.dat
1 1 -40 -1488 0 0 0 -1 0 1 0 1 0 0 3011.dat
1 1 40 -1488 0 0 0 -1 0 1 0 1 0 0 3011.dat
0 // 黄 2x2 x3: 天线尖
1 14 0 -1536 0 1 0 0 0 1 0 0 0 1 3437.dat
1 14 0 -1584 0 1 0 0 0 1 0 0 0 1 3437.dat
1 14 0 -1632 0 1 0 0 0 1 0 0 0 1 3437.dat
0 STEP
