0 FILE 3-cheng-bao.ldr
0 DUPLO Castle (STEAM 课件 · 城堡 · 19 步搭建)
0 Name: 3-cheng-bao.ldr
0 Author: STEAM Explore
0 !LICENSE Redistributable under CCAL version 2.0 : see CAreadme.txt
0 BFC CERTIFY CCW
0 // 由 scripts/ldraw-models/gen-3-cheng-bao.mjs 生成；每个 0 STEP 对应搭建说明 PDF 的一页。
0 // Step 1: 铺绿色底板，围出橙色城墙和白红栏杆
1 2 0 0 0 1 0 0 0 1 0 0 0 1 4268.dat
1 25 -400 -48 440 1 0 0 0 1 0 0 0 1 3011.dat
1 25 -240 -48 440 1 0 0 0 1 0 0 0 1 3011.dat
1 25 -80 -48 440 1 0 0 0 1 0 0 0 1 3011.dat
1 25 80 -48 440 1 0 0 0 1 0 0 0 1 3011.dat
1 25 240 -48 440 1 0 0 0 1 0 0 0 1 3011.dat
1 25 400 -48 440 1 0 0 0 1 0 0 0 1 3011.dat
1 25 -400 -48 -440 1 0 0 0 1 0 0 0 1 3011.dat
1 25 -240 -48 -440 1 0 0 0 1 0 0 0 1 3011.dat
1 25 -80 -48 -440 1 0 0 0 1 0 0 0 1 3011.dat
1 25 80 -48 -440 1 0 0 0 1 0 0 0 1 3011.dat
1 25 240 -48 -440 1 0 0 0 1 0 0 0 1 3011.dat
1 25 400 -48 -440 1 0 0 0 1 0 0 0 1 3011.dat
1 25 -440 -48 -320 0 0 1 0 1 0 -1 0 0 3011.dat
1 25 440 -48 -320 0 0 1 0 1 0 -1 0 0 3011.dat
1 25 -440 -48 -160 0 0 1 0 1 0 -1 0 0 3011.dat
1 25 440 -48 -160 0 0 1 0 1 0 -1 0 0 3011.dat
1 25 -440 -48 320 0 0 1 0 1 0 -1 0 0 3011.dat
1 25 440 -48 320 0 0 1 0 1 0 -1 0 0 3011.dat
1 15 -360 -144 460 1 0 0 0 1 0 0 0 1 31021p01.dat
1 15 -120 -144 460 1 0 0 0 1 0 0 0 1 31021p01.dat
1 15 120 -144 460 1 0 0 0 1 0 0 0 1 31021p01.dat
1 15 360 -144 460 1 0 0 0 1 0 0 0 1 31021p01.dat
1 15 -360 -144 -460 -1 0 0 0 1 0 0 0 -1 31021p01.dat
1 15 -120 -144 -460 -1 0 0 0 1 0 0 0 -1 31021p01.dat
1 15 120 -144 -460 -1 0 0 0 1 0 0 0 -1 31021p01.dat
1 15 360 -144 -460 -1 0 0 0 1 0 0 0 -1 31021p01.dat
1 15 -460 -144 -240 0 0 1 0 1 0 -1 0 0 31021p01.dat
1 15 -460 -144 240 0 0 1 0 1 0 -1 0 0 31021p01.dat
1 15 460 -144 -240 0 0 -1 0 1 0 1 0 0 31021p01.dat
1 15 460 -144 240 0 0 -1 0 1 0 1 0 0 31021p01.dat
0 STEP
0 // Step 2: 主塔一层，正面留出门洞和窗格
1 4 -80 -48 0 1 0 0 0 1 0 0 0 1 3437.dat
1 15 -80 -48 80 1 0 0 0 1 0 0 0 1 3437.dat
1 4 0 -48 0 1 0 0 0 1 0 0 0 1 3437.dat
1 15 0 -48 80 1 0 0 0 1 0 0 0 1 3437.dat
1 4 80 -48 0 1 0 0 0 1 0 0 0 1 3437.dat
1 4 80 -48 80 1 0 0 0 1 0 0 0 1 3437.dat
1 14 -80 -96 0 1 0 0 0 1 0 0 0 1 3437.dat
1 47 -80 -96 80 1 0 0 0 1 0 0 0 1 3437.dat
1 14 0 -96 0 1 0 0 0 1 0 0 0 1 3437.dat
1 47 0 -96 80 1 0 0 0 1 0 0 0 1 3437.dat
1 14 80 -96 0 1 0 0 0 1 0 0 0 1 3437.dat
1 14 80 -96 80 1 0 0 0 1 0 0 0 1 3437.dat
1 14 0 -240 124 1 0 0 0 1 0 0 0 1 92094.dat
1 4 -65.5 -182 124 1 0 0 0 1 0 0 0 1 2205.dat
0 STEP
0 // Step 3: 主塔继续向上叠红黄相间的墙身
1 4 -80 -144 0 1 0 0 0 1 0 0 0 1 3437.dat
1 4 -80 -144 80 1 0 0 0 1 0 0 0 1 3437.dat
1 4 0 -144 0 1 0 0 0 1 0 0 0 1 3437.dat
1 4 0 -144 80 1 0 0 0 1 0 0 0 1 3437.dat
1 4 80 -144 0 1 0 0 0 1 0 0 0 1 3437.dat
1 4 80 -144 80 1 0 0 0 1 0 0 0 1 3437.dat
1 14 -80 -192 0 1 0 0 0 1 0 0 0 1 3437.dat
1 14 -80 -192 80 1 0 0 0 1 0 0 0 1 3437.dat
1 14 0 -192 0 1 0 0 0 1 0 0 0 1 3437.dat
1 14 0 -192 80 1 0 0 0 1 0 0 0 1 3437.dat
1 14 80 -192 0 1 0 0 0 1 0 0 0 1 3437.dat
1 14 80 -192 80 1 0 0 0 1 0 0 0 1 3437.dat
0 STEP
0 // Step 4: 主塔加高，形成城堡最高的主体
1 4 -80 -240 0 1 0 0 0 1 0 0 0 1 3437.dat
1 4 -80 -240 80 1 0 0 0 1 0 0 0 1 3437.dat
1 4 0 -240 0 1 0 0 0 1 0 0 0 1 3437.dat
1 15 0 -240 80 1 0 0 0 1 0 0 0 1 3437.dat
1 4 80 -240 0 1 0 0 0 1 0 0 0 1 3437.dat
1 4 80 -240 80 1 0 0 0 1 0 0 0 1 3437.dat
1 14 -80 -288 0 1 0 0 0 1 0 0 0 1 3437.dat
1 14 -80 -288 80 1 0 0 0 1 0 0 0 1 3437.dat
1 14 0 -288 0 1 0 0 0 1 0 0 0 1 3437.dat
1 14 0 -288 80 1 0 0 0 1 0 0 0 1 3437.dat
1 14 80 -288 0 1 0 0 0 1 0 0 0 1 3437.dat
1 14 80 -288 80 1 0 0 0 1 0 0 0 1 3437.dat
0 STEP
0 // Step 5: 主塔上部加窗格和红色墙带
1 4 -80 -336 0 1 0 0 0 1 0 0 0 1 3437.dat
1 4 -80 -336 80 1 0 0 0 1 0 0 0 1 3437.dat
1 4 0 -336 0 1 0 0 0 1 0 0 0 1 3437.dat
1 4 0 -336 80 1 0 0 0 1 0 0 0 1 3437.dat
1 4 80 -336 0 1 0 0 0 1 0 0 0 1 3437.dat
1 4 80 -336 80 1 0 0 0 1 0 0 0 1 3437.dat
1 14 -80 -384 0 1 0 0 0 1 0 0 0 1 3437.dat
1 14 -80 -384 80 1 0 0 0 1 0 0 0 1 3437.dat
1 14 0 -384 0 1 0 0 0 1 0 0 0 1 3437.dat
1 15 0 -384 80 1 0 0 0 1 0 0 0 1 3437.dat
1 14 80 -384 0 1 0 0 0 1 0 0 0 1 3437.dat
1 14 80 -384 80 1 0 0 0 1 0 0 0 1 3437.dat
0 STEP
0 // Step 6: 主塔顶部盖黄色平台
1 14 -80 -408 -40 1 0 0 0 1 0 0 0 1 40666.dat
1 14 -80 -408 40 1 0 0 0 1 0 0 0 1 40666.dat
1 14 -80 -408 120 1 0 0 0 1 0 0 0 1 40666.dat
1 14 80 -408 -40 1 0 0 0 1 0 0 0 1 40666.dat
1 14 80 -408 40 1 0 0 0 1 0 0 0 1 40666.dat
1 14 80 -408 120 1 0 0 0 1 0 0 0 1 40666.dat
0 STEP
0 // Step 7: 平台上搭小塔座
1 4 -40 -456 40 1 0 0 0 1 0 0 0 1 3437.dat
1 4 40 -456 40 1 0 0 0 1 0 0 0 1 3437.dat
1 14 -40 -504 40 1 0 0 0 1 0 0 0 1 3437.dat
1 14 40 -504 40 1 0 0 0 1 0 0 0 1 3437.dat
0 STEP
0 // Step 8: 小塔座加白色窗格
1 15 -40 -552 40 1 0 0 0 1 0 0 0 1 3437.dat
1 15 40 -552 40 1 0 0 0 1 0 0 0 1 3437.dat
0 STEP
0 // Step 9: 主塔加城垛
1 14 -80 -576 0 1 0 0 0 1 0 0 0 1 40666.dat
1 14 -80 -576 80 1 0 0 0 1 0 0 0 1 40666.dat
1 14 80 -576 0 1 0 0 0 1 0 0 0 1 40666.dat
1 14 80 -576 80 1 0 0 0 1 0 0 0 1 40666.dat
1 4 -40 -624 20 1 0 0 0 1 0 0 0 1 3437.dat
1 4 -40 -624 60 1 0 0 0 1 0 0 0 1 3437.dat
1 4 0 -624 20 1 0 0 0 1 0 0 0 1 3437.dat
1 4 0 -624 60 1 0 0 0 1 0 0 0 1 3437.dat
1 4 40 -624 20 1 0 0 0 1 0 0 0 1 3437.dat
1 4 40 -624 60 1 0 0 0 1 0 0 0 1 3437.dat
1 4 -60 -624 40 0 0 1 0 1 0 -1 0 0 3437.dat
1 4 60 -624 40 0 0 1 0 1 0 -1 0 0 3437.dat
1 4 -60 -624 40 0 0 1 0 1 0 -1 0 0 3437.dat
1 4 60 -624 40 0 0 1 0 1 0 -1 0 0 3437.dat
0 STEP
0 // Step 10: 主塔插上旗杆和红旗
1 0 0 -624 40 1 0 0 0 1 0 0 0 1 51708.dat
1 4 0 -897.6 40 1 0 0 0 1 0 0 0 1 15793.dat
0 STEP
0 // Step 11: 右侧塔一层，连接到城墙边
1 4 340 -48 120 1 0 0 0 1 0 0 0 1 3437.dat
1 15 340 -48 200 1 0 0 0 1 0 0 0 1 3437.dat
1 4 420 -48 120 1 0 0 0 1 0 0 0 1 3437.dat
1 15 420 -48 200 1 0 0 0 1 0 0 0 1 3437.dat
1 14 340 -96 120 1 0 0 0 1 0 0 0 1 3437.dat
1 15 340 -96 200 1 0 0 0 1 0 0 0 1 3437.dat
1 14 420 -96 120 1 0 0 0 1 0 0 0 1 3437.dat
1 15 420 -96 200 1 0 0 0 1 0 0 0 1 3437.dat
1 14 380 -144 244 1 0 0 0 1 0 0 0 1 61649.dat
1 15 380 -144 244 1 0 0 0 1 0 0 0 1 90265.dat
0 STEP
0 // Step 12: 右侧塔叠红黄墙身
1 4 340 -144 120 1 0 0 0 1 0 0 0 1 3437.dat
1 4 340 -144 200 1 0 0 0 1 0 0 0 1 3437.dat
1 4 420 -144 120 1 0 0 0 1 0 0 0 1 3437.dat
1 4 420 -144 200 1 0 0 0 1 0 0 0 1 3437.dat
1 14 340 -192 120 1 0 0 0 1 0 0 0 1 3437.dat
1 14 340 -192 200 1 0 0 0 1 0 0 0 1 3437.dat
1 14 420 -192 120 1 0 0 0 1 0 0 0 1 3437.dat
1 14 420 -192 200 1 0 0 0 1 0 0 0 1 3437.dat
0 STEP
0 // Step 13: 右侧塔加入上层窗格
1 4 340 -240 120 1 0 0 0 1 0 0 0 1 3437.dat
1 15 340 -240 200 1 0 0 0 1 0 0 0 1 3437.dat
1 4 420 -240 120 1 0 0 0 1 0 0 0 1 3437.dat
1 15 420 -240 200 1 0 0 0 1 0 0 0 1 3437.dat
0 STEP
0 // Step 14: 右侧塔盖平台和城垛
1 14 300 -264 80 1 0 0 0 1 0 0 0 1 40666.dat
1 14 300 -264 160 1 0 0 0 1 0 0 0 1 40666.dat
1 14 300 -264 240 1 0 0 0 1 0 0 0 1 40666.dat
1 14 460 -264 80 1 0 0 0 1 0 0 0 1 40666.dat
1 14 460 -264 160 1 0 0 0 1 0 0 0 1 40666.dat
1 14 460 -264 240 1 0 0 0 1 0 0 0 1 40666.dat
1 4 340 -312 100 1 0 0 0 1 0 0 0 1 3437.dat
1 4 340 -312 220 1 0 0 0 1 0 0 0 1 3437.dat
1 4 380 -312 100 1 0 0 0 1 0 0 0 1 3437.dat
1 4 380 -312 220 1 0 0 0 1 0 0 0 1 3437.dat
1 4 420 -312 100 1 0 0 0 1 0 0 0 1 3437.dat
1 4 420 -312 220 1 0 0 0 1 0 0 0 1 3437.dat
1 4 320 -312 120 0 0 1 0 1 0 -1 0 0 3437.dat
1 4 440 -312 120 0 0 1 0 1 0 -1 0 0 3437.dat
1 4 320 -312 200 0 0 1 0 1 0 -1 0 0 3437.dat
1 4 440 -312 200 0 0 1 0 1 0 -1 0 0 3437.dat
0 STEP
0 // Step 15: 左侧塔一层，和右侧塔保持对称
1 4 -420 -48 120 1 0 0 0 1 0 0 0 1 3437.dat
1 15 -420 -48 200 1 0 0 0 1 0 0 0 1 3437.dat
1 4 -340 -48 120 1 0 0 0 1 0 0 0 1 3437.dat
1 15 -340 -48 200 1 0 0 0 1 0 0 0 1 3437.dat
1 14 -420 -96 120 1 0 0 0 1 0 0 0 1 3437.dat
1 15 -420 -96 200 1 0 0 0 1 0 0 0 1 3437.dat
1 14 -340 -96 120 1 0 0 0 1 0 0 0 1 3437.dat
1 15 -340 -96 200 1 0 0 0 1 0 0 0 1 3437.dat
1 14 -380 -144 244 1 0 0 0 1 0 0 0 1 61649.dat
1 15 -380 -144 244 1 0 0 0 1 0 0 0 1 90265.dat
0 STEP
0 // Step 16: 左侧塔叠红黄墙身
1 4 -420 -144 120 1 0 0 0 1 0 0 0 1 3437.dat
1 4 -420 -144 200 1 0 0 0 1 0 0 0 1 3437.dat
1 4 -340 -144 120 1 0 0 0 1 0 0 0 1 3437.dat
1 4 -340 -144 200 1 0 0 0 1 0 0 0 1 3437.dat
1 14 -420 -192 120 1 0 0 0 1 0 0 0 1 3437.dat
1 14 -420 -192 200 1 0 0 0 1 0 0 0 1 3437.dat
1 14 -340 -192 120 1 0 0 0 1 0 0 0 1 3437.dat
1 14 -340 -192 200 1 0 0 0 1 0 0 0 1 3437.dat
0 STEP
0 // Step 17: 左侧塔加入上层窗格
1 4 -420 -240 120 1 0 0 0 1 0 0 0 1 3437.dat
1 15 -420 -240 200 1 0 0 0 1 0 0 0 1 3437.dat
1 4 -340 -240 120 1 0 0 0 1 0 0 0 1 3437.dat
1 15 -340 -240 200 1 0 0 0 1 0 0 0 1 3437.dat
0 STEP
0 // Step 18: 左侧塔盖平台和城垛
1 14 -460 -264 80 1 0 0 0 1 0 0 0 1 40666.dat
1 14 -460 -264 160 1 0 0 0 1 0 0 0 1 40666.dat
1 14 -460 -264 240 1 0 0 0 1 0 0 0 1 40666.dat
1 14 -300 -264 80 1 0 0 0 1 0 0 0 1 40666.dat
1 14 -300 -264 160 1 0 0 0 1 0 0 0 1 40666.dat
1 14 -300 -264 240 1 0 0 0 1 0 0 0 1 40666.dat
1 4 -420 -312 100 1 0 0 0 1 0 0 0 1 3437.dat
1 4 -420 -312 220 1 0 0 0 1 0 0 0 1 3437.dat
1 4 -380 -312 100 1 0 0 0 1 0 0 0 1 3437.dat
1 4 -380 -312 220 1 0 0 0 1 0 0 0 1 3437.dat
1 4 -340 -312 100 1 0 0 0 1 0 0 0 1 3437.dat
1 4 -340 -312 220 1 0 0 0 1 0 0 0 1 3437.dat
1 4 -440 -312 120 0 0 1 0 1 0 -1 0 0 3437.dat
1 4 -320 -312 120 0 0 1 0 1 0 -1 0 0 3437.dat
1 4 -440 -312 200 0 0 1 0 1 0 -1 0 0 3437.dat
1 4 -320 -312 200 0 0 1 0 1 0 -1 0 0 3437.dat
0 STEP
0 // Step 19: 两侧塔插上小红旗，城堡完成
1 0 380 -312 160 1 0 0 0 1 0 0 0 1 51708.dat
1 4 380 -585.6 160 1 0 0 0 1 0 0 0 1 15793.dat
1 0 -380 -312 160 1 0 0 0 1 0 0 0 1 51708.dat
1 4 -380 -585.6 160 -1 0 0 0 1 0 0 0 -1 15793.dat
0 STEP
