<svg xmlns="http://www.w3.org/2000/svg" viewBox="0 0 96 96">
  <defs>
    <radialGradient id="medal" cx="34%" cy="28%" r="72%">
      <stop stop-color="#ffffff"/>
      <stop offset=".32" stop-color="#dbeafe"/>
      <stop offset=".68" stop-color="#93a4bf"/>
      <stop offset="1" stop-color="#475569"/>
    </radialGradient>
    <linearGradient id="rim" x1="22" x2="74" y1="14" y2="82" gradientUnits="userSpaceOnUse">
      <stop stop-color="#f8fafc"/>
      <stop offset=".35" stop-color="#cbd5e1"/>
      <stop offset=".72" stop-color="#64748b"/>
      <stop offset="1" stop-color="#e0f2fe"/>
    </linearGradient>
    <filter id="medalGlow" x="-40%" y="-40%" width="180%" height="180%">
      <feDropShadow dx="0" dy="8" stdDeviation="7" flood-color="#0f172a" flood-opacity=".25"/>
      <feDropShadow dx="0" dy="0" stdDeviation="3" flood-color="#bfdbfe" flood-opacity=".65"/>
    </filter>
  </defs>
  <g filter="url(#medalGlow)">
    <circle cx="48" cy="48" r="35" fill="url(#rim)"/>
    <circle cx="48" cy="48" r="28" fill="url(#medal)"/>
    <circle cx="48" cy="48" r="22" fill="none" stroke="#eff6ff" stroke-width="3" opacity=".72"/>
    <path d="m48 25 6.6 13.3 14.7 2.1-10.6 10.4 2.5 14.6L48 58.5 34.8 65.4l2.5-14.6-10.6-10.4 14.7-2.1L48 25Z" fill="#f8fafc" stroke="#93c5fd" stroke-width="2"/>
    <path d="M31 77 23 91l18-6 7 8 4-13-21-3Z" fill="#3b82f6"/>
    <path d="M65 77 73 91l-18-6-7 8-4-13 21-3Z" fill="#22c55e"/>
  </g>
</svg>
